<?xml version="1.0" encoding="UTF-8"?>
<svg id="Layer_2" data-name="Layer 2" xmlns="http://www.w3.org/2000/svg" viewBox="0 0 175.67 199.93">
  <defs>
    <style>
      .cls-1 {
        fill: #6c6b96;
      }

      .cls-2 {
        fill: #2f4858;
      }

      .cls-3 {
        fill: #fff;
        font-family: Shrikhand-Regular, Shrikhand;
        font-size: 133px;
      }
    </style>
  </defs>
  <g id="Layer_1-2" data-name="Layer 1">
    <path class="cls-2" d="m156.71,29.62c11.38,16.45,10.42,40.43,13.29,62.91,2.74,22.48,9.32,43.31,3.02,58.93-6.44,15.76-25.63,26.31-45.09,31.25-19.32,4.93-39.06,4.25-62.63,1.23-23.44-3.02-50.71-8.36-60.58-24.26-9.73-16.04-2.06-42.49,2.06-70.45,4.11-27.82,4.66-57.01,19.32-72.78C40.77.57,69.55-1.9,95.72,1.11c26.18,3.15,49.61,12.06,60.99,28.51Z"/>
    <path class="cls-1" d="m150.65,50.93c9.5,17.54,3.35,42.01-2.9,65.47-6.26,23.35-12.51,45.58-27.37,54.63-14.97,9.05-38.54,4.8-59.66-5.14-21-10.05-39.55-25.69-46.59-46.81-7.04-21.11-2.68-47.59,11.95-66.36,14.75-18.66,39.55-29.49,64.68-29.72,25.02-.11,50.38,10.39,59.88,27.93Z"/>
    <text class="cls-3" transform="translate(39.05 142.47)"><tspan x="0" y="0">N</tspan></text>
  </g>
</svg>