<?xml version="1.0" encoding="UTF-8"?><svg id="Layer_2" xmlns="http://www.w3.org/2000/svg" viewBox="0 0 2544.83 553.17"><defs><style>.cls-1{fill:#f2f2f2;}.cls-2{fill:#fff;}.cls-3{fill:#070808;}.cls-4{fill:#8a288a;}.cls-5{fill:#fff;font-family:MavenPro-Medium, 'Maven Pro';font-size:256px;font-weight:500;}</style></defs><g id="Layer_2-2"><g><path class="cls-3" d="M308.15,59.3c.18-7.59,.76-15.12,2.25-22.61,1.88-9.4,7.73-14.63,16.72-16.54,4.41-.94,8.05-2.55,10.98-6.16,3.43-4.23,8.21-5.93,13.67-5.66,.67,.03,1.34-.01,2,.08,4.67,.67,8.56-.66,11.92-4.08,2.29-2.33,5.38-3.35,8.58-3.95,.31-.06,.68,.04,.81-.39h6.41c3.79,1.08,7.24,3,10.86,4.5,2.43,1,4.89,.96,7.44,.49,7.1-1.31,13.56-.07,18.69,5.38,3.54,3.75,5.17,8.49,6.21,13.4,.5,2.35,.94,4.63,2.01,6.83,2.13,4.37,2.04,9.17,2.25,13.88,.17,3.86,.18,7.73,.26,11.59-1.08,0-2.1-.28-3.05-.79,.78-8.48,1.11-16.91-2.36-25.53-.58,3.47-1.06,6.34-1.54,9.21-.21,0-.43,0-.64-.01,.32-4.39,.36-8.77-.01-13.16-.65-7.59-3.21-13.93-10.8-17.2-3.12-1.34-6.31-2.09-9.7-1.8-3.5,.29-6.34,1.7-7.85,5.33-.92-3.67-1.6-4.68-4.36-6.43-8.85-5.62-22.73-3.84-27.09,8.81-.41,1.19-.61,2.5-1.64,3.89,.19-1.84-.16-3.31,.35-4.74,.36-.99-.13-1.21-1.03-1.35-2.63-.41-5.22-1.06-7.85-1.38-7.51-.92-11.87,1.89-14.87,8.35-.99,2.12-1.61,4.42-2.41,6.65-.83-.33-.55-1.17-.8-1.74-.49-1.1-1.2-1.71-2.41-1.73-8.19-.19-14.35,3.53-17.29,11.49-2.21,5.97-2.83,12.27-2.9,18.63-.05,4.6,.08,9.25-.55,13.78-.88,6.33-.15,12.48,1.01,18.62,.73,3.89,3.22,6.56,7.21,7.41,1.74,.37,3.57,.38,5.36,.41,3.03,.05,4.12-.98,4.2-4.01,.26-10.59,.84-21.18,.75-31.78-.05-5.35,.93-10.5,2.7-15.53,.16,.32,.2,.62,.15,.91-1.1,6.61-.78,13.27-.77,19.93,0,6.8,.14,13.6-.26,20.4-.21,3.6-.31,7.25,3.13,9.77,3.26,2.39,6.96,3.42,10.88,3.11,5.2-.42,7.26-2.31,8.13-6.92,.32-1.69,.55-3.41,.54-5.16-.04-8.61,.03-17.22-.04-25.83-.04-4.74,.14-9.45,.72-14.16,.23-1.88,.33-3.77,1.23-5.87v10.94c.53-.9,.61-1.5,1.24-1.69,.02,.27,.11,.54,.05,.78-1.09,4.74-.87,9.55-.78,14.34,.15,8.34-.29,16.66-.37,25-.04,4.22,1.25,5.88,5.23,7.15,.76,.24,1.52,.57,2.29,.63,2.07,.16,4.15,.83,6.79-.02-2.28-.31-3.98-.53-5.68-.76,1.9-.28,3.78-.11,5.62-.31,8.32-.91,11.91-4.4,12.46-11.82,.83-11.22,1.44-22.45,2.9-33.62,.42-3.19,.71-6.44,1.88-9.49,.17,6.95-.3,13.86-.52,20.79-.26,8.06-1.43,16.05-1.75,24.1-.17,4.18,.63,5,4.62,6.09,4.08,1.12,8.28,1.19,12.44,1.64-5.33,1.45-10.53,.15-16.17-.9,1.42,1.21,2.64,1.69,3.91,2.08,4.85,1.45,9.78,1.62,14.8,1.25,4.67-.34,7.64-2.77,9.39-6.89,3.19-7.53,3.57-15.46,3.15-23.49-.16-2.98-.39-5.95-.58-8.95,1.01,1.96,1.11,4.09,1.26,6.21,.15,2.12,.33,4.23,.49,6.35,1.39-6.7,1.08-13.42,.65-20.18,1.31,1.91,1.27,4.28,2.23,6.38,.74-2.01,1.42-3.87,2.1-5.73l-.03-.05c.44,.7,.17,1.42,.04,2.12-.32,1.62-.71,3.23-.71,4.91-.67,1.55-.31,3.24-.63,4.84-.93,9.33-.87,18.82-4.4,27.73-.17,.43-.35,.88,.3,1.15,1.61,.67,2.37,2.23,3.49,3.41l.02,.02c-.66,.51-1.24-.09-1.86-.13-1.68-.11-3.5-.71-4.88,.85-1.66,1.88-3.83,2.85-6.17,3.44-8.35,2.1-16.49,1.01-24.47-1.84-.84-.3-1.46-.52-2.36-.02-6.78,3.75-14.02,4.17-21.49,2.76-1.62-.31-3.18-.57-4.7,.68-2.9,2.39-3.11,6.59-.32,10.34,.41-.46,.48-1.02,.6-1.59,.38-1.75,.43-3.56,1.16-5.24,1.2-2.77,2.7-3.57,5.51-2.62,2.82,.96,5.59,2.08,8.38,3.13,2.21,.83,3.21,2.4,3.12,4.77-.1,2.53,.05,5.08-.46,7.57-.35,1.71,.21,2.65,1.83,3.36,3.22,1.41,6.45,2.86,9.48,4.63,3.57,2.09,7.17,2.15,10.93,1,4.47-1.36,8.45-3.8,12.65-5.78,5.71-2.69,11.75-4.6,17.32-7.58,5.43-2.9,9.07-7.04,9.56-13.49,.25-3.31-.22-6.51-.96-9.67-1.58-6.73-4.47-13.03-6.37-20.12-2.44,5.81-2.6,11.64-3.95,17.73,0-2.72-.18-4.94,.04-7.11,.54-5.43,1.26-10.83,1.91-16.25,1.68-.12,3.14,.76,4.73,1.03-.41,.35-.37,.85-.25,1.26,1.42,4.98,2.77,9.97,4.58,14.84,2.2,5.92,3.25,12.09,2.85,18.44-.21,3.29-.87,6.4-2.96,9.16-2.28,3.01-5.18,5.23-8.44,6.9-8.82,4.52-18.16,7.88-27.24,11.83-5.36,2.33-10.71,1.97-16.14-.05-5.18-1.94-10.05-4.56-15.25-6.43-4.07-1.47-8.11-3-11.64-5.62-4.08-3.02-6.24-7.01-5.5-12.08,.35-2.44-.5-2.01-2.11-1.7-5.95,1.16-11.55,.21-16.58-3.28-.8-.56-1.19-.42-1.87-.02-1.99,1.17-4.16,1.83-6.47,1.81-7.91-.08-14.88-4.88-15.55-14.19-.43-6.03,.1-12.05,.05-18.07,.75-1.61,.21-3.32,.36-4.98Zm63.34,48.83c0-1,0-2,0-3,0-.86-.29-1.65-1.08-1.99-3.03-1.32-6.05-2.7-9.29-3.46-1.33-.31-2.27,.13-2.86,1.46-.89,2.02-1.49,4.09-1.83,6.27-.2,1.32,.19,2.12,1.36,2.75,3.82,2.03,7.86,3.49,12.02,4.62,.97,.26,1.16-.03,1.23-.88,.14-1.92,.58-3.82,.45-5.76Z"/><g><path class="cls-4" d="M28.82,316.53c-3.4,0-6.81-.02-10.21-.04l-3.99-.02c-1.56,0-3.06-.48-4.34-1.36l-.37-.25c-2.35-1.6-5.9-4.02-5.9-7.69,0-4,4.17-6.09,6.41-7.21l.41-.21c1.13-.58,2.39-.89,3.65-.89h13.02c3.75,.01,8.68,0,13.59-.09,6.36-.11,13.1-.16,21.85-.16,3.99,0,7.98,.01,11.98,.02,3.99,0,7.97,.02,11.96,.02h6.21c5.66,0,11.41,.05,16.97,.1,4,.04,8.01,.08,12.01,.09,2.27,.01,4.45,.69,6.49,2.02,1.12,.73,2.22,1.49,3.31,2.25l1.36,.94,4.18,2.87-3.76,3.4c-4.6,4.16-10,6.19-16.49,6.19h-.17c-8.62-.04-17.9-.07-28.38-.07-11.49,0-22.98,.03-34.47,.05-8.07,.02-16.15,.04-24.22,.05h-1.07Z"/><path class="cls-1" d="M62.93,302.6c7.97,0,15.95,.04,23.92,.04,1.45,0,2.9,0,4.35,0,.61,0,1.23,0,1.85,0,9.66,0,19.32,.16,28.98,.2,1.61,0,3.01,.52,4.32,1.37,1.56,1.02,3.08,2.1,4.6,3.14-3.95,3.57-8.39,5.15-13.81,5.15-.05,0-.1,0-.15,0-9.49-.05-18.99-.07-28.49-.07-19.54,0-39.08,.07-58.62,.1-.36,0-.72,0-1.07,0-4.73,0-9.45-.03-14.18-.05-.75,0-1.47-.23-2.08-.66-1.47-1.02-4.55-2.96-4.55-4.65s3.22-3.13,4.64-3.86c.57-.29,1.19-.45,1.83-.45,.65,0,1.3,0,1.95,0,3.69,0,7.37,.01,11.06,.01,4.55,0,9.11-.02,13.66-.1,7.26-.13,14.52-.16,21.78-.16m0-8c-8.78,0-15.54,.05-21.92,.16-4.88,.09-9.79,.1-13.52,.1-1.84,0-3.68,0-5.52,0-1.85,0-3.7,0-5.54,0h-1.96c-1.89,0-3.78,.46-5.48,1.34l-.38,.19c-2.58,1.29-8.61,4.32-8.61,10.79,0,5.78,4.98,9.17,7.65,11l.35,.24c1.95,1.34,4.23,2.06,6.59,2.07l3.97,.02c3.42,.02,6.83,.04,10.25,.04h1.08c8.05,0,16.11-.03,24.16-.05,11.29-.03,22.96-.05,34.44-.05,10.5,0,19.81,.02,28.45,.07h.19c7.53,0,13.8-2.36,19.17-7.22l7.52-6.8-8.36-5.73c-.45-.31-.89-.62-1.34-.93-1.09-.76-2.22-1.54-3.41-2.32-2.69-1.76-5.6-2.65-8.65-2.67-3.99-.02-7.98-.06-11.97-.09-5.58-.05-11.35-.11-17.05-.11h-1.86c-1.44,0-2.89,0-4.33,0-3.98,0-7.96-.01-11.94-.02-3.99-.01-7.99-.02-11.98-.02h0Z"/></g><g><path class="cls-4" d="M360.86,537.94c-18.19,0-36.48-1.76-54.39-5.24-10.31-2-18.42-4.5-25.53-7.86-3.18-1.5-5.21-3.99-6.05-7.38-1.77-7.23-2.11-14.43-2.44-21.4-.02-.46-.04-.91-.05-1.37-.04-1.33-.09-2.59-.28-3.71-.23-1.35-1.14-2.57-2.93-3.93-3.93-3-8.4-5.16-13.12-7.44-1.24-.6-2.48-1.2-3.71-1.81-1.46-.73-2.93-1.45-4.4-2.16-5.19-2.53-10.55-5.14-15.6-8.38-9.84-6.32-15.27-14.12-16.61-23.85-1.09-7.89-.68-15.71-.2-21.65,1.72-21.39,5.34-42.8,8.84-63.5l.43-2.57c5.27-31.2,10-55.04,15.34-77.31,4.68-19.5,11.39-40.3,20.51-63.61,5.38-13.74,9.88-24.13,14.6-33.67,1.13-2.28,2.47-4.73,4.55-6.76-1.76-2.96-2.14-6.18-2.45-8.75-.87-7.31-.62-14.62-.37-21.68l.07-2.12c.32-9.68,.85-19.49,1.37-28.98l.21-3.92c.3-5.77,.61-11.73,1.8-17.62,2.21-10.97,7.96-20.61,17.59-29.47,2.53-2.33,5.27-4.33,8.14-5.97l6.62-3.76-.66,7.59c-.03,.29,0,.72,.02,1.17,.07,1.34,.17,3.18-.73,5.14l-.48,1.04-.95,.63c-8.91,5.87-14.46,14.03-16.94,24.94-2.53,11.12-3.16,22.53-3.63,34.22-.31,7.63-.24,15.44-.18,22.99,.04,4.49,.07,9.13,.03,13.71-.01,1.75,.47,3.11,1.51,4.3,.92,1.04,1.38,1.4,1.61,1.52,5.73-.27,10.64-1.15,14.96-2.7,.81-.29,.8-.51,.78-.96-.09-2.72,1.01-4.92,3.26-6.54,4.72-3.39,10.16-6.09,16.61-8.23,11.31-3.75,23.79-5.57,38.14-5.57,1.21,0,2.42,.01,3.63,.04,14.32,.29,27.31,2.48,39.7,6.71,7.93,2.71,13.66,5.6,18.57,9.39,.96,.74,3.53,2.72,3.18,6.65-.09,.99,.02,1.34,.04,1.39h0s.34,.27,1.42,.6c3.3,1.02,6.1,1.63,8.79,1.92,.71,.08,1.43,.14,2.14,.2,2.71,.24,5.5,.48,8.34,1.36,3.06-1.96,4.48-4.25,4.59-7.33l.06-1.46c.06-1.45,.12-2.83,.12-4.2,.01-6.86,.06-13.71,.11-20.56,.07-10.84,.15-22.05,.08-33.06-.04-7.25-1.44-13.9-4.27-20.35-4.46-10.17-10.28-16.32-18.31-19.37-1.22-.46-2.45-.91-3.68-1.35l-1.4-.51c-.73-.15-1.37-.36-1.94-.55-.55-.18-1.12-.36-1.4-.36l-1.33,.1-1.15-.72c-.47-.3-1.21-.43-2.17-.53l-4.37-.45,.86-4.31c.06-.31,.08-.78,.09-1.27,.04-1.15,.08-2.73,.79-4.36l1.29-3.01,7.62,1.6,.51,.28c.39,.21,.76,.31,1.18,.31h.63s.6,.2,.6,.2c7.37,2.43,13.09,5.44,17.99,9.47,10.74,8.81,17.03,20.48,18.72,34.7,.82,6.9,.89,13.84,.97,20.55,.01,1.35,.03,2.69,.05,4.04,.14,9.32,.1,18.77,.06,27.92l-.03,6.39c-.02,4.33-.05,8.96-.32,13.62-.29,4.97-2.3,9.3-5.84,12.67,2.85,4.77,5.01,9.8,7.1,14.7l.97,2.26c13.74,31.78,23.55,60.96,30.01,89.21,4.57,20,8.73,41.24,13.5,68.85,3.05,17.7,5.49,33.38,7.46,47.96,1.42,10.47,2.83,22.9,2.57,35.7-.25,12.54-5.63,22.39-15.98,29.29-11.19,7.46-23.37,11.5-32.72,14.18-1.98,.57-3.96,1.1-5.95,1.63-3.88,1.04-7.9,2.12-11.71,3.43-.98,.34-2,.75-2.99,1.14-2.64,1.06-3.36,2.02-3.36,4.45,.02,8.1-.7,15.35-2.2,22.14-.91,4.1-3.15,6.9-6.87,8.57-9.52,4.27-19.37,6.49-26.89,7.95-12.53,2.43-26.31,3.93-42.11,4.59-4,.17-8.04,.25-12.02,.25Zm22.54-79.03s-.08-.05-.12-.08l-.39,.07h.52Zm68.74-258.91c2.95,6.69,5.65,13.62,8.05,20.66,10.66,31.27,18.22,66.48,23.78,110.82,1.94,15.48,3.61,31.26,4.97,46.9,1.47,16.97,3.04,37.08,3.52,57.54,.17,7.35-1.85,13.15-6.18,17.74-1.23,1.3-2.54,2.52-3.93,3.65,3.44-1.31,6.79-2.95,9.84-5.15,4.32-3.11,6.64-6.55,7.3-10.83,.55-3.58,.3-7.36-.04-11.24v-.17s-.01-.17-.01-.17c0-1.34,.02-2.68,.03-4.03,.03-2.9,.07-5.64-.05-8.39-.75-17.01-2.35-34.95-5.02-56.45-3.19-25.69-7.08-48.78-11.87-70.59-6.51-29.65-13.95-53.71-23.4-75.73-2.06-4.8-4.27-9.78-6.98-14.56Zm-174.61,16.21c-3.53,8.62-6.5,17.36-9.23,25.83-7.81,24.25-13.9,50.58-19.17,82.87-2.87,17.62-5.23,35.42-7,52.89-2.04,20.09-3.03,35.56-3.21,50.14,0,0,0,5.24,0,6.75,.01,5.77,2.52,10.3,7.68,13.86,1.77,1.22,3.47,2.25,5.14,3.12-5.26-5.21-7.71-11.5-7.28-18.77,.09-1.57,.12-3.13,.15-4.79,.02-1.11,.04-2.22,.08-3.33,.71-19.44,2.22-39.95,4.91-66.49,2.38-23.51,5.15-44.47,8.45-64.1,4.85-28.83,11.21-54.33,19.45-77.95,0,0,0-.02,.01-.03Zm75.1,223.31c.25,1.15,.81,1.26,2.53,1.58,6.81,1.26,13.17,1.87,19.43,1.87,2.09,0,4.18-.07,6.22-.21h.18c.3-.04,.59-.06,.87-.06,.58,0,1.14,.08,1.65,.23,.2-.14,.4-.26,.61-.37,.67-1.58,.62-2.05,.61-2.1-.02-.03-.25-.51-1.95-1.65-.29-.2-.58-.41-.86-.62-3.67-2.83-8.07-4.33-12.71-4.33s-9.29,1.46-13.31,4.12c-.86,.57-1.95,1.2-3.26,1.55Zm55.6-17.26c5.06,4.6,10.26,9.37,15.07,14.62,1.51,1.65,3.36,2.63,5.65,3,3.81,.61,7.8,.92,11.87,.92,6.94,0,14.33-.88,22.58-2.69,3.95-.87,6.29-3.53,7.14-8.15,.24-1.27,.34-2.59,.33-4.02-.08-11.42-.77-23.06-1.45-34.32l-.4-6.67c-.58-9.86-1.18-20.06-1.94-30.07-.94-12.45-2.06-25.67-3.5-41.61-.75-8.32-1.69-17.97-3.33-27.26-2.79-15.86-6.34-31.97-10.56-47.87l-.25-.94c-2.17-8.17-4.21-15.89-7.72-23.16-.6-1.24-1.38-2.36-2.35-3.35,.47,.68,.88,1.33,1.25,1.91,6.01,9.57,4.47,20.23-3.93,27.15-4.01,3.31-8.72,5.56-14.99,7.13,8.64,19.75,14.53,38.15,17.98,56.17,1.6,8.35,2.77,16.05,3.57,23.5,6.4,1.87,10.25,7.79,9.3,14.72-.98,7.15-5.36,11.84-9.06,15.13-.08,.07-.13,.12-.16,.15-.38,3.36-1.03,6.6-1.93,9.66-2.56,8.74-6.43,15.11-11.94,19.54,1.78,1.16,4.07,3.05,4.84,6.31,.77,3.22-3.06,9.62-3.1,9.68-.38,.59-1.37,2.13-3.19,2.6-.11,.16-.25,.4-.37,.59-.19,.32-.39,.65-.6,.96-1.14,1.67-2.42,3.17-3.83,4.47-4.63,4.29-10.03,6.36-14.5,7.64,.03,1.38-.13,2.8-.47,4.23Zm-119.87-190.2c-2.47,8.83-4.5,17.54-6.3,25.48-2.66,11.75-5.61,25.7-7.31,40.09-1.33,11.29-2.61,22.34-3.63,33.31-1.38,14.83-2.46,27.1-3.42,38.63-.75,8.99-1.46,18.6-2.25,30.27l-.18,2.58c-.48,6.94-.97,14.11-.94,21.12,.05,9.98,5.08,12.51,8.87,13.54,5.87,1.6,11.87,2.41,17.82,2.41,.85,0,1.7-.02,2.55-.05,1.69-.06,3.35-.24,4.14-1.06,6.03-6.28,12.17-12.24,18.25-17.74-.28-1.36-.32-2.7-.28-4.04-5.84-2.63-10.6-6.61-14.2-11.85-1.94-.7-2.95-1.95-3.47-2.91-.56-1.05-.8-2.25-.69-3.5-1.69-1.54-2.25-3.19-2.4-4.39-.19-1.47,.03-3.73,2.17-6.17,1.23-1.4,2.66-2.35,3.86-2.99-3.97-3.4-5.9-6.1-8.11-10.65-2.52-5.18-4.11-11.01-5.01-18.35,0,0,0,0,0,0-.01-.01-.03-.03-.04-.04-2.73-2.47-6.06-5.96-7.59-11.04-2.3-7.66,.81-14.57,7.76-17.62,1.83-16.68,4.83-31.94,9.17-46.64,3.51-11.91,8.06-23.34,12.17-32.91-7.75-2.4-13.43-5.85-17.77-10.76-1.31-1.48-2.37-3.05-3.18-4.68Zm94.46,131.96c5.44,4.32,10.87,8.64,16.29,12.99,.21,.17,.45,.29,.95,.36,5.83,.83,11.54,2.01,16.95,3.54,.14,.04,.25,.06,.34,.06,.06,0,.18,0,.39-.08,5.08-1.75,8.62-5.23,11.16-10.94,3.39-7.62,3.89-15.92,3.94-23.03,0-.6,0-1.22-.02-1.84,0-.65-.02-1.31-.02-1.98-3.94,.42-7.9,1.19-11.8,2.32-14.62,4.22-27.38,11.56-38.17,18.6Zm-84.74-20.56c0,1.5-.02,2.99,.01,4.48,.16,8.12,1.25,14.54,3.42,20.19,2.39,6.23,5.82,10.13,10.78,12.29,.19,.08,.27,.09,.27,.09,7.86-2.03,16.24-3.45,25.64-4.34,.13-.01,.13-.02,.21-.08l3.64-2.95c3.51-2.85,7.13-5.78,10.75-8.66-9.18-5.77-17.77-10.28-26.19-13.76-10.62-4.38-19.96-6.92-28.52-7.76v.48Zm69.76,31.32c-.06-.04-.13-.09-.19-.13-.06,.04-.12,.09-.18,.13h.37Zm-68.61-49.14c6.91,.02,13.86,.94,21.24,2.83,16.22,4.15,31.77,11.97,47.53,23.91,9.73-7.56,19.11-13.47,28.67-18.07,11.87-5.71,23.07-8.65,34.23-8.97h.24c.16,0,.32,0,.48,0-.05-.24-.09-.49-.12-.74-2.44-18.29-6.8-37.01-12.94-55.65-2.7-8.2-5.79-16.91-10.12-25.11-1.64-3.11-3.87-5.09-7-6.23-10.53-3.85-22.39-6.06-35.26-6.58-10.58,.27-21.12,1.88-32.23,4.9-6.14,1.67-10.06,5.01-12.72,10.85-4.86,10.65-9.1,22.41-13.36,37-3.9,13.37-6.8,27.44-8.62,41.84Z"/><path class="cls-1" d="M422.31,54.48c1.28,.27,2.57,.54,3.85,.81,.95,.51,1.97,.78,3.05,.79,6.05,2,11.73,4.67,16.71,8.76,10.17,8.34,15.75,19.12,17.28,32.08,.95,8.03,.87,16.11,.99,24.18,.18,11.41,.07,22.82,.03,34.24-.02,4.47-.06,8.94-.32,13.4-.27,4.63-2.33,8.41-6.07,11.24-.43,.32-1.37,.37-.67,1.42,3.91,5.85,6.51,12.37,9.29,18.79,12.39,28.67,22.81,58.02,29.78,88.51,5.2,22.74,9.49,45.66,13.45,68.64,2.74,15.9,5.28,31.83,7.44,47.81,1.57,11.64,2.77,23.3,2.53,35.08-.23,11.21-4.87,19.82-14.2,26.05-9.72,6.48-20.48,10.47-31.61,13.66-5.96,1.71-12,3.11-17.86,5.13-1.07,.37-2.12,.79-3.17,1.21-3.68,1.48-5.88,3.62-5.87,8.17,.02,7.12-.55,14.25-2.1,21.26-.61,2.75-1.95,4.6-4.6,5.78-8.33,3.74-17.11,5.95-26.02,7.67-13.71,2.66-27.57,3.94-41.52,4.52-3.96,.17-7.91,.25-11.86,.25-18.01,0-35.88-1.72-53.62-5.17-8.45-1.64-16.75-3.84-24.58-7.54-2.12-1-3.32-2.48-3.87-4.72-1.66-6.78-2-13.7-2.33-20.63-.09-1.86-.07-3.75-.39-5.57-.48-2.77-2.27-4.77-4.45-6.43-5.35-4.08-11.52-6.67-17.47-9.64-6.62-3.3-13.38-6.32-19.63-10.33-7.79-5-13.5-11.49-14.81-21.03-.95-6.91-.73-13.86-.18-20.78,1.78-22.09,5.54-43.9,9.23-65.72,4.36-25.83,9.17-51.57,15.29-77.04,5.17-21.55,12.28-42.47,20.35-63.09,4.42-11.29,9.08-22.48,14.46-33.36,1.59-3.22,3.35-6.23,6.92-7.81-3.49-2.63-3.99-6.32-4.43-9.95-.92-7.72-.53-15.47-.27-23.2,.34-10.33,.92-20.65,1.47-30.97,.34-6.32,.57-12.69,1.82-18.9,2.21-10.99,8.23-19.83,16.38-27.32,2.26-2.08,4.73-3.91,7.41-5.43-.14,1.66,.39,3.36-.36,4.98-9.98,6.57-16.01,15.84-18.64,27.39-2.62,11.5-3.26,23.22-3.73,34.95-.49,12.27-.05,24.55-.15,36.83-.02,2.64,.77,5.01,2.52,6.98,1.22,1.37,2.68,2.87,4.49,2.87,.05,0,.1,0,.15,0,5.53-.25,11.02-1.06,16.27-2.93,2.2-.79,3.52-2.43,3.44-4.86-.05-1.41,.44-2.33,1.6-3.16,4.76-3.42,10.01-5.85,15.54-7.68,12-3.98,24.34-5.37,36.88-5.37,1.18,0,2.37,.01,3.55,.04,13.17,.26,26.02,2.24,38.49,6.5,6.2,2.12,12.18,4.73,17.42,8.77,1.03,.79,1.78,1.57,1.64,3.13-.32,3.53,.83,5.11,4.27,6.17,3.12,.96,6.29,1.73,9.55,2.07,3.57,.38,7.2,.44,10.63,1.72,.2,.07,.38,.11,.55,.11,.33,0,.63-.12,.95-.3,4.31-2.48,7.17-5.92,7.36-11.12,.07-1.93,.17-3.86,.18-5.8,.03-17.89,.3-35.77,.19-53.66-.05-7.69-1.55-14.96-4.61-21.93-4.23-9.64-10.29-17.6-20.56-21.5-1.8-.69-3.62-1.33-5.44-1.99-1.49-.25-2.86-1.04-4.41-1.04-.11,0-.21,0-.32,.01-1.19-.76-2.54-.99-3.91-1.14,.32-1.6-.04-3.28,.63-4.84m-142.27,418.09c.12,0,.23-.03,.34-.08,1.16-.59,1.39-2.97,2.08-4.55,.38-.88,.18-1.46-.56-2.06-3.88-3.18-7.87-6.16-12.58-8.06-4.09-1.66-8-3.65-11.57-6.29-6.2-4.58-9.77-10.46-9.3-18.42,.16-2.73,.14-5.47,.24-8.2,.8-22.14,2.66-44.2,4.9-66.23,2.17-21.37,4.85-42.66,8.42-63.84,4.42-26.27,10.5-52.12,19.28-77.3,3.09-8.87,6.36-17.68,11.04-25.88,.99-1.73,2.37-2.8,4.22-3.43,3.24-1.11,6.57-1.79,9.97-1.99,1.93-.11,2.8-.81,2.87-2.82,.04-1.09-.12-1.57-.88-1.57-.19,0-.42,.03-.7,.09-3.52,.75-7.09,1.29-10.58,2.14-9.24,2.26-7.92,.07-13.64,10.21-8.3,14.69-13.95,30.51-19.11,46.51-8.78,27.27-14.7,55.21-19.31,83.45-2.88,17.64-5.23,35.35-7.03,53.13-1.7,16.79-3.02,33.61-3.23,50.49,0,2.27,0,4.54,0,6.81,.02,7.43,3.41,13,9.41,17.14,2.53,1.75,5.18,3.3,7.99,4.53,8.5,3.73,16.85,7.72,24.21,13.5,1.14,.89,2.49,2.71,3.5,2.71m162.56,.31c.23,0,.52-.1,.88-.28,1.42-.72,2.91-1.33,4.43-1.82,8.25-2.69,16.74-4.42,25.14-6.51,7.6-1.89,15.02-4.24,21.47-8.88,4.65-3.35,8.02-7.63,8.92-13.47,.62-4.04,.34-8.12,0-12.19,0-4.2,.16-8.4-.03-12.59-.84-19-2.7-37.91-5.05-56.77-2.96-23.82-6.78-47.5-11.93-70.95-5.74-26.14-13.05-51.8-23.63-76.44-3.23-7.53-6.65-14.99-11.46-21.7-1.02-1.43-2.28-2.29-4.02-2.7-5.72-1.34-11.51-2.24-17.28-3.25-.2-.03-.4-.12-.59-.12-.17,0-.32,.07-.44,.31-.64,1.31,.66,3.68,2.13,3.9,1.91,.28,3.82,.61,5.73,.87,4.66,.63,7.8,2.98,9.84,7.38,3.67,7.93,6.89,16.03,9.71,24.29,12.19,35.75,18.91,72.67,23.6,110.02,1.95,15.55,3.6,31.13,4.95,46.74,1.65,19.07,3.05,38.15,3.51,57.29,.13,5.62-1.13,10.71-5.09,14.9-5.72,6.06-12.93,9.51-20.79,11.76-6.72,1.92-13.58,3.35-20.19,5.68-1.24,.44-1.79,.99-1.08,2.27,.23,.4,.41,.85,.51,1.3,.15,.67,.38,.98,.78,.98m-151.56-29.42c.9,0,1.8-.02,2.7-.05,2.44-.09,5.06-.4,6.87-2.29,6.15-6.4,12.51-12.59,19.13-18.51,.47-.42,.8-.77,.53-1.51-.67-1.79-.62-3.68-.52-5.54,.06-1.16-.31-1.75-1.43-2.21-5.63-2.32-10.21-5.99-13.63-11.05-.39-.58-.8-1.03-1.5-1.22-1.73-.47-2.18-1.75-1.68-3.26,.33-1.01,.02-1.37-.75-1.89-2.27-1.54-2.45-3.45-.63-5.53,.99-1.13,2.25-1.89,3.57-2.52,1.6-.76,3.25-1.44,4.94-2.17-7.41-5.48-9.46-7.73-12.18-13.33-2.63-5.4-3.92-11.18-4.64-17.09-.13-1.09-.54-1.81-1.33-2.52-2.85-2.58-5.3-5.44-6.44-9.23-1.8-6,.73-11.22,6.62-13.23,1.04-.36,1.08-.9,1.17-1.71,1.69-15.94,4.6-31.65,9.14-47.04,3.99-13.51,9.31-26.51,15.02-39.36,1.45-3.26,1.73-6.23-.33-9.2-.88-1.27-.46-1.9,.68-2.66,5.57-3.73,11.76-6.01,18.21-7.5,10.21-2.35,20.45-3.47,30.72-3.47,8.89,0,17.79,.84,26.69,2.44,7.97,1.43,15.65,3.85,22.57,8.27,1.4,.9,1.99,1.67,.91,3.24-1.8,2.63-1.93,5.39-.41,8.28,.9,1.7,1.5,3.56,2.28,5.32,8.13,18.33,14.64,37.18,18.42,56.92,1.55,8.12,2.82,16.29,3.66,24.52,.09,.88,.13,1.57,1.37,1.77,5.43,.87,8.54,5.24,7.8,10.64-.73,5.37-3.89,9.25-7.76,12.68-.85,.76-1.35,1.54-1.48,2.67-.35,3.05-.93,6.06-1.8,9.01-2.65,9.02-7.1,16.66-15.99,20.91-.12,.06-.16,.28-.24,.43,2.02,.68,3.96,1.42,5.71,2.53,1.54,.97,2.92,2.15,3.37,4.04,.24,1-2.45,7.3-3.42,7.49-1.88,.37-2.39,1.89-3.26,3.16-.94,1.38-2.01,2.65-3.24,3.79-4.04,3.74-8.97,5.7-14.16,7.07-1.35,.36-1.93,.77-1.72,2.26,.26,1.79,.03,3.63-.48,5.35-.36,1.21,.03,1.81,.84,2.55,5.28,4.8,10.56,9.62,15.39,14.88,2.19,2.38,4.87,3.74,7.96,4.24,4.18,.67,8.35,.98,12.51,.98,7.87,0,15.69-1.08,23.44-2.78,5.79-1.27,9.13-5.43,10.22-11.33,.29-1.59,.41-3.17,.4-4.77-.09-12.61-.9-25.19-1.65-37.78-.66-11.18-1.3-22.37-2.15-33.54-1.05-13.9-2.25-27.78-3.5-41.66-.84-9.23-1.77-18.46-3.37-27.59-2.85-16.22-6.41-32.28-10.64-48.2-2.24-8.44-4.42-16.91-8.23-24.81-2.23-4.61-6.13-7.46-10.84-9.23-.73-.27-1.56-.33-2.35-.41-.09,0-.18-.01-.27-.01-.39,0-.79,.11-.66,.68,.52,2.32-.13,4.98,2.24,6.77,1.6,1.21,2.72,2.93,3.78,4.63,4.88,7.78,3.72,16.32-3.09,21.94-4.76,3.92-10.43,5.81-16.38,7-.18,.04-.34,.06-.49,.06-.35,0-.62-.14-.81-.56-1.4-3.08-2.86-6.16-.14-9.31,.3-.35,.44-.82,.71-1.2,.8-1.12,.46-1.83-.65-2.56-4.32-2.85-8.97-5.04-13.89-6.52-12.39-3.74-24.89-5.55-37.47-5.55-8.64,0-17.31,.85-26.02,2.53-8.36,1.6-16.29,4.51-23.78,8.62-1.75,.96-2.48,1.78-1.27,3.74,.86,1.4,1.23,3.08,1.89,4.61,1.17,2.71-1.01,4.5-1.82,6.65-.08,.22-.28,.3-.52,.3-.25,0-.55-.08-.77-.14-6.94-1.86-13.33-4.73-18.2-10.23-4.69-5.3-5.35-11.57-2-17.8,1.28-2.37,2.95-4.44,4.91-6.28,2.79-2.62,5.93-4.76,9.36-6.45,1.46-.72,.96-1.93,.92-2.96-.03-1.05-1.08-1.04-1.84-1.09-.13,0-.25-.01-.38-.01-1.78,0-3.39,.67-4.96,1.47-5.57,2.82-8.75,7.52-10.8,13.28-4.91,13.85-8.35,28.09-11.59,42.39-3.03,13.39-5.77,26.84-7.38,40.5-1.31,11.13-2.6,22.25-3.64,33.41-1.2,12.88-2.35,25.77-3.42,38.66-.84,10.1-1.57,20.21-2.25,30.33-.54,7.98-1.16,15.97-1.12,23.98,.04,9.26,3.94,15.24,11.82,17.38,6.16,1.68,12.48,2.55,18.87,2.55m5.34-113.8c.27,0,.58,0,.94-.02,.58-.01,1.16-.02,1.74-.02,6.92,0,13.72,.99,20.43,2.71,17.34,4.43,32.64,12.93,46.75,23.72,.7,.54,1.26,.79,1.79,.79,.59,0,1.16-.31,1.88-.87,8.9-6.96,18.3-13.15,28.5-18.05,10.32-4.96,21.07-8.24,32.61-8.58,.04,0,.08,0,.12,0,.99,0,2.18,.34,3.15,.34,.6,0,1.12-.13,1.46-.56,.94-1.21-.05-3.33-.28-5.03-2.57-19.21-7.04-37.97-13.1-56.37-2.9-8.8-6.04-17.5-10.38-25.72-2.06-3.9-4.98-6.59-9.17-8.12-12.02-4.39-24.47-6.35-36.61-6.83-11.71,.29-22.57,2.12-33.31,5.04-7.29,1.98-12.16,6.14-15.31,13.05-5.54,12.16-9.82,24.74-13.56,37.54-4.25,14.55-7.19,29.37-8.99,44.42-.27,2.28-.3,2.58,1.36,2.58m16.16,54.85c.33,0,.68-.04,1.04-.14,8.21-2.12,16.56-3.42,24.99-4.22,.91-.09,1.66-.39,2.35-.95,5.65-4.57,11.28-9.17,16.98-13.66,1.37-1.08,1.51-1.56-.07-2.58-9.46-6.14-19.27-11.62-29.71-15.93-10.08-4.16-20.44-7.27-30.53-8.12-.68-.03-1.24-.06-1.68-.06-1.82,0-1.82,.42-1.83,2.57,0,2.2-.04,4.4,0,6.59,.14,7.37,1.02,14.63,3.69,21.55,2.47,6.44,6.37,11.67,12.91,14.52,.61,.27,1.21,.43,1.84,.43m127.51-39.54c1.38-1.41,2.16-2.52,2.61-3.85,.23-.7,.08-1.33-.55-1.76-.37-.25-.79-.49-1.21-.49-.16,0-.31,.03-.47,.1-.7,.33-.34,1.06-.36,1.61-.04,1.26-.01,2.53-.01,4.39m-22.71,40c.56,0,1.11-.1,1.69-.3,6.56-2.26,10.77-6.93,13.52-13.1,3.49-7.84,4.23-16.19,4.28-24.63,0-2.13-.1-4.27,.03-6.4,.08-1.34-.41-1.67-1.41-1.67-.14,0-.29,0-.44,.02-5.14,.34-10.18,1.25-15.13,2.68-15.56,4.49-29.39,12.45-42.72,21.4-1.33,.9-.5,1.26,.19,1.81,6.42,5.11,12.85,10.21,19.25,15.35,.87,.7,1.82,1.05,2.9,1.21,5.55,.78,11.03,1.91,16.42,3.43,.49,.14,.96,.21,1.42,.21m-126.35-41.93v-4.1c-1.32,1.63-.83,2.73,0,4.1m63.95,35.95c4.33-.15,8.53-.21,12.66-.21,4.41,0,8.75,.07,13.12,.17-4.13-2.9-8.27-5.78-12.37-8.71-.27-.19-.5-.27-.71-.27-.36,0-.67,.23-1.03,.49-2.41,1.77-4.85,3.51-7.27,5.27-1.34,.98-2.66,1.98-4.4,3.27m-4.45,56.81s-.05,0-.07,0c-.02,0-.05,0-.07,0-1.55,0-1.99,.92-1.9,2.33,.28,4.38,1.66,6.09,5.98,6.89,6.68,1.24,13.39,1.94,20.16,1.94,2.16,0,4.33-.07,6.5-.22,.27-.02,.53-.05,.78-.05,.66,0,1.19,.21,1.3,1.38,.15,1.59-.83,1.62-1.79,1.69-3.06,.21-6.13,.28-9.18,.54-2.48,.21-5.01,.22-7.42,1.11,5.04,.39,10.09,.19,15.09,.85-4.84,1.12-9.87,.65-14.63,2.15,1.95,.22,3.9,.25,5.85,.25,.83,0,1.66,0,2.48,0,2.52,0,5.03,.06,7.53,.5-4.35,.78-8.7,1.28-13.06,1.28-3.11,0-6.22-.25-9.34-.84-1.83-.34-2.37-1.36-2.42-3.05-.05-1.86,.44-3.72,.03-5.58-.08-.36,.1-.91-.4-.99-.05,0-.1-.01-.14-.01-.5,0-.64,.51-.68,.92-.18,1.79-.32,3.58-.46,5.38-.13,1.61-.52,2.96-1.81,4.22-1.66,1.62-2.85,3.71-4.48,5.91,14.1,.21,27.68,.41,41.47,.62-.89-1.95-1.71-3.75-2.54-5.55-.17-.36-.34-.73-.54-1.07-.13-.22-.3-.53-.51-.59-1.81-.53-1.54-1.84-1.3-3.2,.19-1.11,.45-2.27,.34-3.37-.16-1.55-.49-2.96,1.6-3.45,.31-.07,.53-.73,.72-1.15,2.04-4.54,1.51-6.42-2.57-9.15-.22-.15-.44-.31-.65-.47-4.65-3.58-9.93-5.17-15.16-5.17-5.5,0-10.93,1.75-15.52,4.78-1.01,.67-1.99,1.17-3.2,1.17M317.43,44.82l-13.24,7.53c-3.13,1.78-6.11,3.97-8.87,6.5-10.28,9.45-16.43,19.8-18.81,31.63-1.24,6.18-1.56,12.29-1.87,18.21l-.1,1.84-.12,2.2c-.51,9.47-1.04,19.25-1.36,28.93l-.07,2.11c-.25,7.22-.51,14.68,.4,22.3,.24,2.04,.57,4.78,1.67,7.61-1.62,2.09-2.66,4.18-3.39,5.66-4.78,9.65-9.32,20.14-14.74,33.99-9.19,23.48-15.95,44.45-20.68,64.13-5.37,22.35-10.12,46.28-15.4,77.58l-.44,2.62c-3.51,20.77-7.14,42.24-8.87,63.79-.49,6.13-.91,14.23,.23,22.51,1.51,10.96,7.53,19.68,18.41,26.67,5.25,3.37,10.71,6.03,16,8.61,1.46,.71,2.92,1.42,4.38,2.15,1.25,.62,2.5,1.23,3.76,1.84,4.54,2.19,8.82,4.26,12.43,7.01,1.1,.84,1.4,1.33,1.42,1.44,.15,.85,.19,1.97,.23,3.15,.02,.48,.03,.96,.06,1.44,.32,6.82,.69,14.55,2.55,22.16,1.12,4.56,3.96,8.03,8.22,10.05,7.41,3.5,15.83,6.1,26.48,8.17,18.15,3.52,36.71,5.31,55.15,5.31,4.04,0,8.14-.09,12.19-.25,16.01-.67,29.98-2.19,42.71-4.66,7.73-1.5,17.88-3.79,27.77-8.23,4.88-2.19,7.95-6.01,9.14-11.35,1.57-7.08,2.32-14.61,2.29-23.01,0-.14,0-.25,.01-.34,.17-.1,.44-.23,.84-.39,.94-.38,1.91-.76,2.8-1.07,3.67-1.27,7.45-2.28,11.44-3.35,1.96-.53,4-1.07,6.02-1.65,9.63-2.76,22.19-6.93,33.84-14.7,11.5-7.67,17.48-18.62,17.76-32.54,.26-13.07-1.17-25.69-2.6-36.32-1.98-14.62-4.42-30.36-7.48-48.1-4.77-27.68-8.95-48.98-13.54-69.06-6.51-28.5-16.4-57.9-30.24-89.91-.32-.75-.65-1.5-.97-2.26-1.78-4.15-3.59-8.39-5.85-12.55,2.95-3.67,4.63-8.08,4.92-13,.28-4.75,.31-9.44,.33-13.84,0-2.11,.02-4.22,.03-6.33,.04-9.18,.09-18.68-.06-28.05-.02-1.34-.04-2.67-.05-4.01-.08-6.82-.15-13.87-1-20.99-1.81-15.28-8.59-27.84-20.15-37.32-5.22-4.29-11.53-7.61-19.28-10.17l-1.19-.39h-.88s-.71-.39-.71-.39l-1.13-.24-2.22-.47-1.63-.34-6.41-1.35-2.59,6.02c-1,2.33-1.07,4.43-1.11,5.81,0,.23-.02,.54-.03,.68l-1.72,8.56,8.75,.9c.36,.04,.57,.07,.69,.09l1.97,1.26,2.13-.16c.14,.04,.3,.09,.43,.14,.55,.18,1.24,.4,2.05,.59,.39,.14,.78,.28,1.18,.43,1.21,.44,2.41,.87,3.61,1.33,7.06,2.68,12.01,8,16.07,17.24,2.61,5.94,3.89,12.08,3.93,18.76,.07,11-.01,22.21-.08,33.05-.05,6.73-.09,13.69-.11,20.55,0,1.29-.06,2.62-.11,4.03-.02,.5-.04,.99-.06,1.49-.03,.95-.2,1.97-1.43,3.11-2.52-.58-4.94-.79-7.15-.98-.69-.06-1.38-.12-2.07-.19-2.06-.22-4.2-.65-6.66-1.35-.19-3.29-1.78-6.11-4.75-8.4-5.28-4.07-11.36-7.16-19.72-10.01-12.79-4.36-26.17-6.63-40.91-6.93-1.25-.02-2.5-.04-3.71-.04-14.78,0-27.67,1.89-39.4,5.78-6.85,2.27-12.64,5.14-17.69,8.78-2.68,1.93-4.31,4.51-4.78,7.55-3.09,.93-6.54,1.53-10.43,1.8-.02-.02-.04-.05-.07-.08-.26-.3-.52-.66-.51-1.61,.04-4.61,0-9.26-.03-13.76-.06-7.51-.12-15.28,.18-22.81,.46-11.49,1.08-22.7,3.54-33.49,2.24-9.86,7.23-17.21,15.24-22.49l1.91-1.25,.96-2.07c1.32-2.86,1.18-5.47,1.1-7.03-.01-.22-.03-.53-.03-.65l1.31-15.13h0Zm-13.65,276.95c1.8-12.67,4.46-25.04,7.91-36.86,4.21-14.41,8.39-25.99,13.16-36.46,2.18-4.78,5.11-7.28,10.13-8.65,10.75-2.92,20.94-4.48,31.15-4.76,12.41,.52,23.82,2.65,33.92,6.34,2.21,.81,3.66,2.11,4.84,4.34,4.19,7.93,7.21,16.46,9.86,24.49,5.66,17.18,9.78,34.43,12.27,51.33-10.48,.83-21.02,3.84-32.09,9.16-9.01,4.33-17.86,9.8-26.96,16.66-15.36-11.25-30.6-18.71-46.5-22.78-6.1-1.56-11.93-2.49-17.68-2.82h0Zm123.38-72.31c3.93-1.36,8.2-3.4,12.08-6.6,2.41-1.98,4.34-4.26,5.79-6.72,.19,.7,.37,1.4,.56,2.1l.25,.95c4.19,15.79,7.72,31.79,10.49,47.53,1.61,9.15,2.54,18.7,3.28,26.93,1.44,15.89,2.55,29.09,3.49,41.55,.76,9.96,1.36,20.13,1.94,29.97l.2,3.44,.19,3.2c.67,11.22,1.36,22.83,1.44,34.16,0,1.18-.08,2.25-.27,3.26-.79,4.25-2.92,4.72-4.07,4.97-7.97,1.75-15.08,2.6-21.73,2.6-3.85,0-7.64-.29-11.24-.87-1.41-.23-2.44-.77-3.34-1.75-4.35-4.75-8.97-9.07-13.52-13.22,4.15-1.44,8.98-3.72,13.19-7.62,1.63-1.51,3.11-3.24,4.42-5.15,.14-.2,.26-.39,.37-.57,2.21-1.12,3.4-2.96,3.85-3.68,.2-.31,4.85-7.63,3.62-12.77-.55-2.3-1.63-4.11-2.79-5.49,4.36-4.67,7.61-10.74,9.83-18.31,.83-2.83,1.46-5.79,1.88-8.83,3.76-3.5,8.33-8.85,9.4-16.7,1.1-8.04-2.78-15.03-9.56-18.15-.8-6.8-1.9-13.83-3.34-21.36-3.26-17.04-8.66-34.39-16.45-52.86h0Zm-136.12,186.01c-5.6,0-11.24-.76-16.77-2.27-3.06-.83-5.89-2.58-5.92-9.7-.03-6.86,.43-13.65,.93-20.83l.18-2.57c.78-11.58,1.5-21.18,2.24-30.21,.96-11.57,2.05-23.83,3.41-38.59,1.01-10.9,2.29-21.93,3.62-33.21,1.67-14.2,4.6-28.02,7.24-39.67,1.24-5.49,2.6-11.36,4.14-17.38,3.74,3.73,8.26,6.61,13.86,8.82-3.69,8.82-7.56,18.92-10.66,29.41-4.22,14.31-7.2,29.13-9.06,45.2-7.29,4.3-10.5,12.56-7.86,21.35,1.62,5.39,4.95,9.26,7.69,11.88,.99,7.12,2.65,12.92,5.2,18.16,1.73,3.56,3.38,6.13,5.53,8.51-.24,.24-.47,.48-.7,.74-3.12,3.57-3.42,7.04-3.13,9.32,.2,1.55,.8,3.55,2.39,5.49,.13,1.33,.51,2.6,1.14,3.78,.98,1.82,2.49,3.27,4.36,4.23,3.43,4.7,7.73,8.43,12.85,11.15-5.54,5.07-11.09,10.49-16.57,16.18-.26,.05-.76,.12-1.72,.16-.79,.03-1.6,.05-2.4,.05h0Zm21.88-59.17c-3.44-1.79-5.83-4.8-7.67-9.59-2-5.21-3-11.19-3.15-18.84,0-.11,0-.22,0-.33,6.97,1.14,14.54,3.42,22.99,6.9,6.73,2.78,13.58,6.24,20.77,10.5-2.13,1.71-4.24,3.43-6.31,5.11-.93,.75-1.86,1.51-2.79,2.26-8.65,.86-16.47,2.17-23.82,3.99h0Zm76.77-11.92c9.47-5.89,20.31-11.63,32.4-15.12,2.23-.64,4.47-1.17,6.72-1.56-.08,6.51-.62,13.95-3.58,20.62-1.92,4.32-4.49,7.04-8.04,8.5-5.16-1.41-10.57-2.53-16.1-3.33-3.79-3.04-7.62-6.09-11.41-9.11h0Zm-25.11,74.05c1.53-.39,3.09-.59,4.62-.59,2.14,0,4.18,.38,6.08,1.12-.23,0-.47,0-.7,0-3.29,0-6.61-.18-10.01-.53h0Z"/></g><g><path class="cls-4" d="M65.74,504.56c-1.24,0-2.41-.45-3.38-1.28h-.02s-.42-.38-.42-.38c-.1-.08-.44-.28-.67-.4-1.3-.73-4.34-2.45-4.18-6.37,.16-4.2,2.05-7.74,5.31-9.98l3.78-2.6c4.5-3.09,9.15-6.29,13.78-9.39,14.33-9.59,28.66-19.17,43-28.74,15-10.03,30.01-20.05,45.01-30.09,.34-.23,.68-.49,1.01-.74,1.51-1.16,3.58-2.74,6.55-2.74,.76,0,1.52,.11,2.29,.32,.39,.05,.78,.09,1.18,.14,1.12,.14,2.18,.27,3.21,.33,1.67,.09,2.98,.7,3.87,1.8,1.34,1.65,1.06,3.55,.92,4.46-.73,4.86-3.27,8.67-7.79,11.67-9.4,6.23-18.92,12.61-28.13,18.79-5.86,3.93-11.72,7.86-17.59,11.78-20.12,13.43-38.76,25.83-56.98,37.92-1.62,1.08-3.28,2.03-4.89,2.96-.94,.54-1.87,1.08-2.8,1.64-1.02,.62-2.01,.92-3.05,.92Z"/><path class="cls-1" d="M175.5,415.84c.46,0,.95,.08,1.48,.25,1.66,.18,3.31,.44,4.97,.53,1.28,.07,1.23,.59,1.07,1.67-.6,3.98-2.72,6.72-6.04,8.92-15.29,10.13-30.48,20.4-45.74,30.58-18.97,12.66-37.96,25.3-56.97,37.91-2.44,1.62-5.05,2.99-7.55,4.51-.35,.21-.67,.34-.97,.34-.33,0-.64-.15-.95-.49-.04-.05-.12-.07-.16-.11-1.26-1.18-3.65-1.51-3.56-3.68,.11-2.74,1.19-5.2,3.58-6.84,5.83-4,11.64-8.03,17.52-11.96,29.33-19.62,58.68-39.21,88.01-58.83,1.72-1.15,3.21-2.81,5.33-2.81m0-8h0c-4.32,0-7.24,2.23-8.98,3.56-.31,.24-.6,.46-.8,.6-15.01,10.04-30.02,20.07-45.04,30.11-14.33,9.57-28.65,19.14-42.97,28.72-4.66,3.12-9.33,6.33-13.85,9.44l-3.74,2.57c-4.33,2.97-6.84,7.63-7.05,13.12-.16,4.23,1.93,7.6,6.22,10.01,.08,.04,.15,.08,.23,.13,.03,.03,.07,.06,.11,.09,1.71,1.53,3.85,2.37,6.12,2.37,1.77,0,3.49-.51,5.13-1.5,.87-.53,1.77-1.05,2.72-1.6,1.66-.95,3.37-1.94,5.09-3.08,18.17-12.05,37.34-24.81,56.99-37.92,5.91-3.95,11.82-7.91,17.73-11.87,9.17-6.15,18.64-12.5,27.99-18.69,5.43-3.6,8.64-8.45,9.53-14.41,.19-1.24,.68-4.55-1.78-7.57-1.12-1.38-3.21-3.07-6.75-3.27-.9-.05-1.89-.17-2.95-.3-.3-.04-.61-.07-.91-.11-1.01-.25-2.02-.38-3.04-.38h0Z"/></g><g><path class="cls-4" d="M673.84,505.03c-1.74,0-3.5-.57-5.37-1.74-7.18-4.47-14.28-9.25-21.15-13.87-3.05-2.05-6.09-4.1-9.15-6.13-23.75-15.75-47.86-31.82-71.17-47.36l-2.46-1.64c-1.05-.7-2.04-1.45-2.99-2.16-1.07-.8-2.08-1.56-3.1-2.21-3.78-2.38-4.67-6.03-5.32-8.69-.13-.51-.25-1.02-.4-1.52-.58-1.95,.1-3.37,.56-4.04,1.24-1.8,3.19-1.96,3.83-2.01,1.51-.2,3-.36,4.48-.53l1.83-.2h.25c1.29,.02,3.68,.05,5.92,1.68,6.29,4.58,12.92,8.96,19.34,13.19,2.79,1.84,5.59,3.69,8.36,5.55,24.7,16.59,50.57,33.94,79.09,53.03,3.08,2.06,5.04,4.85,5.99,8.54,.74,2.86-.05,5.37-2.35,7.44-1.99,1.79-4.02,2.66-6.19,2.66Z"/><path class="cls-1" d="M563.63,416.94c1.29,.02,2.49,.09,3.61,.91,9.06,6.6,18.53,12.58,27.83,18.83,26.35,17.7,52.72,35.38,79.1,53.03,2.3,1.54,3.66,3.57,4.35,6.22,.39,1.51-.01,2.43-1.16,3.46-1.21,1.09-2.32,1.63-3.52,1.63-.99,0-2.05-.38-3.26-1.13-10.25-6.38-20.15-13.27-30.2-19.94-24.56-16.29-49.09-32.64-73.62-48.99-2.11-1.4-4.04-3.08-6.18-4.43-2.99-1.88-3.16-5.08-4.02-7.96-.29-.98,.6-.88,1.11-.95,1.98-.27,3.97-.47,5.96-.69m-.41-8.01l-.5,.06c-.53,.06-1.05,.12-1.58,.18-1.43,.16-2.9,.32-4.4,.52-3.69,.32-5.7,2.2-6.75,3.72-1.47,2.14-1.87,4.85-1.1,7.44,.11,.38,.23,.85,.35,1.34,.72,2.95,1.93,7.88,7.08,11.12,.88,.56,1.82,1.27,2.82,2.02,1,.75,2.03,1.53,3.18,2.3l2.86,1.91c23.18,15.45,47.16,31.43,70.77,47.09,3.04,2.02,6.14,4.1,9.13,6.11,6.9,4.64,14.03,9.44,21.27,13.95,2.53,1.57,4.98,2.34,7.49,2.34,3.17,0,6.15-1.24,8.87-3.69,4.36-3.92,4.34-8.37,3.55-11.41-1.19-4.61-3.76-8.27-7.64-10.86-28.3-18.94-54.17-36.28-79.08-53.03-2.8-1.88-5.65-3.76-8.4-5.58-6.38-4.21-12.97-8.56-19.18-13.08-3.27-2.38-6.62-2.42-8.23-2.44h-.5Z"/></g><g><path class="cls-4" d="M477.81,143.92c-.93,0-1.93-.11-2.95-.33-.57-.12-1.14-.26-1.7-.39-.96-.23-1.86-.45-2.71-.57-2.4-.34-3.48-1.64-3.96-2.66-.7-1.48-.52-3.09,.51-4.79,.7-1.14,1.37-2.3,2.05-3.46,1.31-2.23,2.66-4.53,4.14-6.76,11.32-17.01,22.67-34,34.01-50.99,7.2-10.78,14.4-21.57,21.59-32.36,2.39-3.59,4.99-7.44,7.74-11.32,2.41-3.39,5.41-5.71,9.19-7.09,.82-.3,1.66-.66,2.64-1.07,.51-.22,1.06-.45,1.65-.69l6.36-2.63-.86,6.83-.37,2.99c-.36,2.88-.69,5.6-1.1,8.34-.22,1.48-.98,2.53-1.48,3.23-.07,.1-.14,.2-.21,.29-17.78,26.62-35.57,53.23-53.35,79.85l-10.09,15.11c-.22,.33-.44,.65-.67,.98-.51,.74-.99,1.44-1.38,2.13-2.01,3.52-5.14,5.38-9.04,5.38Z"/><path class="cls-1" d="M551.54,25.14c-.51,3.99-.92,7.62-1.46,11.24-.1,.67-.66,1.29-1.06,1.89-21.14,31.65-42.29,63.3-63.44,94.95-.74,1.11-1.53,2.19-2.19,3.34-1.36,2.38-3.27,3.36-5.57,3.36-.67,0-1.38-.08-2.11-.24-1.56-.33-3.11-.78-4.68-1.01-1.2-.17-1.08-.61-.6-1.41,2.04-3.36,3.93-6.82,6.11-10.08,18.51-27.8,37.07-55.56,55.6-83.34,2.52-3.77,5.05-7.53,7.67-11.22,1.89-2.66,4.26-4.54,7.3-5.64,1.37-.5,2.7-1.1,4.45-1.82m9.67-12.65l-12.72,5.25c-.6,.25-1.16,.48-1.68,.71-.93,.39-1.73,.73-2.45,1-4.51,1.64-8.24,4.51-11.09,8.53-2.81,3.96-5.52,7.99-7.8,11.41-7.02,10.53-14.05,21.06-21.08,31.59-11.32,16.96-23.03,34.5-34.52,51.76-1.55,2.32-2.93,4.67-4.26,6.95-.67,1.14-1.34,2.28-2.03,3.41-2.22,3.64-1.61,6.68-.71,8.58,.74,1.56,2.63,4.28,7.01,4.91,.66,.1,1.48,.29,2.34,.5,.6,.14,1.2,.29,1.81,.42,1.3,.28,2.57,.42,3.78,.42,5.34,0,9.79-2.63,12.52-7.39,.31-.55,.75-1.19,1.22-1.86,.23-.33,.46-.67,.68-1l15.3-22.9c16.05-24.02,32.1-48.04,48.14-72.06,.04-.05,.08-.11,.12-.17,.6-.82,1.83-2.54,2.2-4.98,.41-2.77,.75-5.5,1.11-8.38,.12-.99,.25-2,.38-3.03l1.73-13.65h0Z"/></g><g><path class="cls-4" d="M261.76,143.03c-2.43,0-5.92-.88-8.69-5.08-3.51-5.31-7.05-10.61-10.59-15.91l-10.15-15.19c-14.57-21.81-29.65-44.36-44.51-66.51-1.48-2.2-2.33-4.62-2.61-7.38-.18-1.78-.41-3.57-.65-5.47-.11-.87-.22-1.75-.33-2.67l-.77-6.29,6.01,2.01c5.41,1.81,10.93,4.28,14.67,10.05,5.18,8,10.59,16.06,15.82,23.85,1.73,2.58,3.47,5.16,5.2,7.75,4.67,6.98,9.35,13.97,14.02,20.95,9.13,13.63,18.26,27.27,27.36,40.92,1.37,2.06,2.63,4.18,3.84,6.23,.75,1.26,1.5,2.53,2.27,3.78,1.35,2.18,1.04,3.89,.54,4.95-.72,1.54-2.13,2.46-4.2,2.75-1.39,.19-2.81,.48-4.22,.85-1.03,.27-2.04,.41-3.01,.41Z"/><path class="cls-1" d="M188.19,24.34c5.2,1.74,9.6,3.83,12.58,8.43,6.88,10.64,14.01,21.12,21.05,31.65,13.79,20.62,27.62,41.22,41.38,61.86,2.14,3.21,4,6.61,6.04,9.9,.68,1.09,.42,1.46-.8,1.62-1.58,.22-3.16,.54-4.7,.95-.7,.19-1.36,.28-1.99,.28-2.24,0-3.96-1.18-5.36-3.29-4.15-6.29-8.35-12.55-12.53-18.81-17.57-26.28-35.12-52.57-52.73-78.82-1.16-1.74-1.75-3.53-1.95-5.55-.27-2.64-.63-5.28-.99-8.23m-9.47-11.61l1.53,12.58c.11,.92,.23,1.81,.34,2.68,.24,1.88,.46,3.65,.63,5.37,.34,3.43,1.41,6.44,3.27,9.21,14.94,22.27,30.1,44.95,44.76,66.88l7.97,11.92,1.88,2.81c3.5,5.23,7.11,10.64,10.63,15.97,3.96,5.98,9.24,6.88,12.03,6.88,1.31,0,2.67-.18,4.03-.54,1.25-.33,2.51-.59,3.75-.76,4.57-.63,6.52-3.41,7.27-5.01,.75-1.6,1.65-4.86-.77-8.76-.75-1.2-1.47-2.42-2.23-3.71-1.24-2.09-2.52-4.26-3.95-6.41-9.1-13.65-18.38-27.5-27.35-40.9-4.68-6.99-9.36-13.98-14.04-20.97-1.73-2.58-3.46-5.17-5.2-7.75-5.23-7.78-10.63-15.83-15.79-23.8-4.41-6.82-10.95-9.73-16.75-11.67l-12.01-4.02h0Z"/></g><g><path class="cls-4" d="M217.07,154.84c-.59-.09-1.14-.17-1.67-.24-1.15-.16-2.23-.32-3.33-.52-3-.56-6.16-1.33-8.9-4.02-15.25-14.95-31.79-31.39-50.59-50.25-5.02-5.03-10.02-10.08-15.02-15.12-5.1-5.14-10.2-10.28-15.31-15.41-3.18-3.19-4.4-7.06-5.18-10.43-.35-1.5-.29-3.71,1.93-5.75,2.24-2.05,3.84-3.52,6.34-3.52,2.23,0,3.77,1.16,6.09,2.92,1.88,1.42,3.64,2.96,5.26,4.57l21.05,21.08c12.51,12.52,25.01,25.04,37.5,37.58,4.2,4.21,8.37,8.45,12.54,12.69,2.94,2.99,5.89,5.99,8.84,8.97,1.67,1.69,2.79,3.63,3.32,5.77,.38,1.53,.73,3.06,1.1,4.66l.5,2.17,1.35,5.75-5.84-.88Z"/><path class="cls-1" d="M125.35,53.57c.89,0,1.84,.72,3.69,2.11,1.71,1.29,3.32,2.68,4.83,4.2,19.52,19.55,39.05,39.09,58.55,58.66,7.16,7.18,14.24,14.44,21.37,21.65,1.11,1.12,1.91,2.4,2.29,3.92,.54,2.18,1.03,4.38,1.6,6.77-1.84-.28-3.36-.46-4.86-.74-2.49-.46-4.86-1.01-6.83-2.94-16.96-16.63-33.79-33.39-50.56-50.22-10.13-10.16-20.2-20.37-30.33-30.53-2.37-2.38-3.39-5.36-4.11-8.51-.2-.86,.16-1.37,.74-1.9,1.81-1.66,2.69-2.47,3.63-2.47m0-8h0c-4.05,0-6.58,2.31-9.02,4.55-3.86,3.53-3.63,7.54-3.15,9.61,.85,3.69,2.33,8.43,6.24,12.36,5.11,5.13,10.21,10.27,15.3,15.4,5.01,5.05,10.01,10.09,15.03,15.13,18.78,18.85,35.34,35.29,50.62,50.29,3.84,3.76,8.3,4.6,10.96,5.09,1.19,.22,2.32,.38,3.52,.55,.52,.07,1.05,.15,1.62,.23l11.67,1.75-2.69-11.49c-.17-.72-.33-1.42-.49-2.11-.38-1.64-.74-3.19-1.13-4.77-.71-2.84-2.17-5.4-4.36-7.61-2.93-2.96-5.84-5.92-8.76-8.89-4.13-4.2-8.39-8.53-12.63-12.78-12.42-12.46-24.85-24.91-37.29-37.36-7.09-7.1-14.18-14.2-21.27-21.3-1.74-1.75-3.65-3.4-5.67-4.93-2.55-1.92-4.94-3.73-8.51-3.73h0Z"/></g><g><path class="cls-4" d="M519.47,144.92c.72-3.34,2.65-5.65,4.63-7.65,3.43-3.46,6.86-6.93,10.28-10.39,4.27-4.32,8.53-8.64,12.81-12.94,13.36-13.44,26.74-26.86,40.13-40.27,3.42-3.42,6.86-6.83,10.29-10.23,2.26-2.23,4.51-4.46,6.76-6.7,1.41-1.4,2.89-2.53,4.33-3.63,.62-.47,1.25-.95,1.86-1.44,1.07-.87,2.23-1.31,3.45-1.31,1.11,0,2.16,.35,3.22,1.08,5.82,3.99,6.54,6.29,4.02,12.94-1.28,3.39-3.58,5.69-5.61,7.71l-.33,.33c-22.25,22.28-44.52,44.55-66.8,66.81-1.41,1.41-2.84,2.79-4.28,4.17-2.16,2.09-4.4,4.24-6.47,6.43-2.93,3.08-6.36,4.79-10.49,5.23-.87,.09-1.78,.25-2.83,.45-.55,.1-1.11,.2-1.71,.3l-5.8,.96,2.55-11.85Z"/><path class="cls-1" d="M614.02,54.36c.29,0,.59,.13,.96,.38,4.34,2.97,4.4,3.29,2.54,8.23-1.04,2.74-3.06,4.66-5.03,6.63-22.25,22.28-44.52,44.55-66.8,66.8-3.59,3.58-7.34,7-10.83,10.68-2.24,2.36-4.82,3.67-8.01,4-1.51,.16-3,.48-4.78,.78,.48-2.21,.9-4.16,1.31-6.1,.5-2.32,1.94-4.04,3.56-5.67,7.71-7.77,15.37-15.57,23.09-23.33,13.36-13.44,26.74-26.86,40.13-40.26,5.66-5.66,11.37-11.27,17.04-16.92,1.81-1.8,3.92-3.2,5.89-4.8,.34-.28,.63-.41,.93-.41m0-8h0c-1.49,0-3.73,.38-5.97,2.2-.54,.44-1.14,.89-1.76,1.37-1.47,1.12-3.14,2.39-4.73,3.97-2.26,2.25-4.52,4.49-6.78,6.73-3.37,3.34-6.86,6.79-10.28,10.21-13.66,13.67-27.16,27.22-40.14,40.27-4.29,4.31-8.56,8.63-12.83,12.96-3.42,3.46-6.84,6.92-10.26,10.38-2.29,2.31-4.76,5.26-5.7,9.62l-.86,3.98-.46,2.11-2.48,11.5,11.61-1.93c.62-.1,1.2-.21,1.76-.31,.98-.18,1.82-.33,2.55-.4,5.05-.53,9.41-2.7,12.97-6.45,2.01-2.12,4.11-4.15,6.34-6.29,1.42-1.37,2.89-2.79,4.34-4.23,24.03-24.01,45.88-45.86,66.8-66.81l.33-.33c2.2-2.2,4.94-4.93,6.52-9.13,1.17-3.08,2.37-6.27,1.23-10.01-1.17-3.84-4.12-5.86-6.73-7.64-1.72-1.18-3.56-1.78-5.48-1.78h0Z"/></g><g><path class="cls-4" d="M183.45,275.49c-3.09,0-6.1-.6-9.01-1.19l-.36-.07c-39.58-7.93-72.52-14.41-103.65-20.41-4.5-.87-7.82-2.96-10.44-6.59-2.29-3.17-1.9-6.82,1.02-9.52,1.5-1.4,3.93-3.26,7.63-3.26,.84,0,1.7,.09,2.62,.28,16.61,3.44,33.53,6.78,49.9,10.01,20.83,4.11,42.37,8.35,63.5,12.87,2.46,.53,4.55,1.66,6.19,3.36,1.06,1.09,2.09,2.21,3.16,3.37l1.34,1.45,3.06,3.3-3.98,2.91c-3.19,2.34-6.78,3.49-10.98,3.49Z"/><path class="cls-1" d="M68.63,238.46c.56,0,1.16,.06,1.81,.2,37.75,7.83,75.67,14.81,113.38,22.87,1.64,.35,3.02,1.05,4.15,2.23,1.48,1.53,2.9,3.11,4.45,4.77-.25,.18-.31,.22-.36,.26-2.78,2.04-5.66,2.71-8.61,2.71s-5.67-.6-8.58-1.18c-34.54-6.92-69.09-13.75-103.68-20.42-3.54-.68-5.98-2.27-7.95-5-1.12-1.55-.92-2.94,.5-4.25,1.5-1.39,2.95-2.19,4.91-2.19m0-8h0c-3.83,0-7.21,1.41-10.35,4.32-4.38,4.06-5,10.01-1.54,14.79,3.21,4.44,7.44,7.12,12.93,8.17,31.17,6,64.09,12.49,103.62,20.41l.36,.07c3.1,.62,6.31,1.27,9.79,1.27,5.08,0,9.45-1.39,13.35-4.26l.1-.07,.25-.18,7.27-5.31-6.13-6.59c-.46-.5-.91-.98-1.35-1.46-1.04-1.12-2.11-2.29-3.21-3.42-2.21-2.28-4.98-3.79-8.23-4.49-21.17-4.52-42.73-8.77-63.58-12.88-16.35-3.22-33.27-6.56-49.85-9.99-1.17-.24-2.33-.37-3.43-.37h0Z"/></g><g><path class="cls-4" d="M555.75,276.81c-1.51,0-2.96-.3-4.31-.9-1.33-.59-2.66-1.21-4.03-1.85l-1.8-.84-4.19-1.94,2.82-4.33c4.52-7.32,11.83-8.76,18.28-10.03l.41-.08c25.52-5.04,51.46-10.25,76.54-15.28l26.93-5.4c.31-.06,.63-.11,.95-.15,.17-.02,.34-.04,.5-.08,1.17-.48,2.36-.73,3.52-.73,3.76,0,6.26,2.48,7.75,3.96,2.49,2.47,2.82,5.84,.84,8.6-2.15,3-4.79,5.91-9.45,6.79-11.45,2.18-23.07,4.49-34.32,6.72-5.94,1.18-11.88,2.36-17.83,3.53-11.28,2.21-22.56,4.42-33.84,6.62-8.8,1.72-17.6,3.43-26.39,5.16-.81,.16-1.61,.24-2.39,.24Z"/><path class="cls-1" d="M671.37,239.2c1.96,0,3.46,1.33,4.93,2.8,1.06,1.05,1.24,2.27,.41,3.43-1.75,2.44-3.62,4.56-6.95,5.19-17.41,3.31-34.78,6.84-52.17,10.25-20.07,3.94-40.15,7.84-60.23,11.77-.55,.11-1.09,.16-1.62,.16-.92,0-1.82-.17-2.69-.56-1.88-.83-3.74-1.72-5.76-2.66,.19-.3,.27-.41,.34-.52,3.7-5.99,9.84-7.08,16.07-8.31,34.51-6.82,68.99-13.77,103.48-20.68,.72-.14,1.49-.16,2.15-.44,.73-.31,1.41-.44,2.03-.44m0-8h0c-1.53,0-3.06,.28-4.56,.84,0,0,0,0,0,0-.3,.04-.72,.1-1.19,.19-8.88,1.78-17.76,3.56-26.64,5.34-25.18,5.05-51.21,10.27-76.82,15.33l-.41,.08c-6.53,1.29-15.46,3.05-20.92,11.87l-.04,.07-.19,.29-5.05,7.74,8.38,3.89c.6,.28,1.19,.56,1.77,.83,1.41,.66,2.73,1.28,4.13,1.9,1.86,.82,3.85,1.24,5.92,1.24,1.03,0,2.09-.11,3.16-.31,8.79-1.72,17.59-3.44,26.38-5.16,11.28-2.2,22.57-4.4,33.85-6.62,5.94-1.17,11.88-2.35,17.82-3.52,11.24-2.23,22.87-4.54,34.3-6.72,6.06-1.15,9.44-4.89,11.95-8.39,3.13-4.37,2.62-9.9-1.27-13.77-1.67-1.66-5.15-5.12-10.57-5.12h0Z"/></g><g><path class="cls-4" d="M125.84,548.22c-.59,0-1.2-.05-1.8-.15-3.13-.11-5.23-.23-6.86-2.04-1.63-1.81-1.49-3.97-1.32-6.47,.17-2.54,1.11-4.72,2.87-6.72,6.51-7.41,13.39-14.66,20.03-21.66,2.44-2.58,4.89-5.15,7.32-7.74,10.12-10.78,20.45-21.7,30.44-32.27,4.19-4.43,8.38-8.86,12.57-13.3,2.69-2.85,6.26-4.41,10.06-4.41,3.21,0,6.35,1.17,8.86,3.28,.43,.36,1.74,1.47,1.88,3.42,.13,1.94-1,3.19-1.43,3.67-15.56,17.25-31.74,34.43-47.38,51.05-8.73,9.27-17.76,18.86-26.57,28.35-.03,.03-.06,.07-.09,.1-1.94,3.16-4.96,4.89-8.56,4.89Z"/><path class="cls-1" d="M199.14,457.46c2.21,0,4.43,.77,6.27,2.34,.65,.55,.58,.78,.06,1.36-24.21,26.84-49.31,52.87-73.91,79.35-.14,.15-.31,.27-.4,.44-1.34,2.39-3.32,3.27-5.32,3.27-.46,0-.93-.05-1.38-.13-4.9-.17-4.87-.17-4.59-4.31,.11-1.68,.77-3.03,1.88-4.29,8.81-10.03,18.13-19.58,27.26-29.31,14.29-15.22,28.66-30.37,42.99-45.55,1.98-2.1,4.56-3.16,7.15-3.16m0-8h0c-4.91,0-9.52,2.01-12.97,5.67-4.18,4.42-8.36,8.84-12.54,13.26-10,10.58-20.34,21.51-30.47,32.31-2.42,2.58-4.85,5.14-7.29,7.71-6.68,7.04-13.58,14.32-20.15,21.79-2.33,2.65-3.62,5.69-3.85,9.04v.06c-.19,2.83-.43,6.35,2.34,9.42,2.68,2.97,6.1,3.22,9.45,3.35,.73,.1,1.46,.16,2.17,.16,4.83,0,9.05-2.33,11.73-6.43,8.74-9.41,17.71-18.93,26.37-28.13,15.67-16.64,31.87-33.85,47.47-51.14,1.79-1.98,2.61-4.21,2.45-6.61-.11-1.66-.77-4.09-3.28-6.21-3.22-2.73-7.29-4.23-11.44-4.23h0Z"/></g><g><path class="cls-4" d="M614.22,549.17c-4.5,0-7.27-2.99-9.1-4.98-9.52-10.31-19.29-20.71-28.74-30.78-3.71-3.96-7.43-7.91-11.14-11.87-4.34-4.64-8.68-9.28-13.02-13.92-4.86-5.2-9.72-10.4-14.59-15.59-.98-1.04-1.8-2.12-2.59-3.16-1.1-1.44-2.14-2.8-3.36-3.72-1.77-1.33-2-2.96-1.99-3.82,.03-1.51,.77-2.78,2.22-3.8,2.67-2.12,5.69-3.24,8.75-3.24,3.57,0,7.02,1.55,9.72,4.37,9.43,9.84,19.56,20.46,29.78,31.38,4.68,5.01,9.39,9.99,14.09,14.97,8.34,8.84,16.96,17.97,25.32,27.1,2.99,3.26,4.43,6.96,4.53,11.62,.08,3.41-2.31,5.01-4.71,5.08-.81,.03-1.62,.07-2.43,.12l-.77,.04c-.67,.13-1.33,.19-1.98,.19Z"/><path class="cls-1" d="M540.67,458.31c2.43,0,4.82,1.04,6.83,3.13,9.96,10.4,19.91,20.82,29.75,31.34,13.12,14.02,26.41,27.88,39.38,42.04,2.47,2.69,3.41,5.57,3.48,9,.01,.69-.14,.97-.83,.99-1.2,.04-2.4,.12-3.6,.18-.52,.11-1.01,.17-1.47,.17-2.58,0-4.3-1.68-6.16-3.69-13.21-14.31-26.59-28.46-39.9-42.67-9.21-9.83-18.4-19.68-27.61-29.51-2.23-2.38-3.8-5.33-6.46-7.33-.87-.65-.11-.95,.34-1.31,1.96-1.56,4.11-2.35,6.23-2.35m0-8h0c-3.93,0-7.76,1.38-11.09,4-3.31,2.36-3.85,5.38-3.87,6.97-.05,2.75,1.26,5.33,3.58,7.08,.78,.59,1.62,1.68,2.58,2.95,.81,1.07,1.74,2.27,2.85,3.46,4.83,5.15,9.65,10.31,14.48,15.47,4.37,4.68,8.75,9.36,13.13,14.03,3.72,3.98,7.45,7.95,11.18,11.92,9.43,10.04,19.18,20.43,28.68,30.71,2.02,2.19,5.78,6.26,12.03,6.26,.8,0,1.62-.07,2.44-.21l.54-.03c.78-.04,1.55-.09,2.33-.11,5.08-.15,8.69-4.01,8.58-9.16-.12-5.62-1.95-10.27-5.58-14.24-8.39-9.15-17.03-18.31-25.38-27.16-4.62-4.89-9.39-9.95-14.06-14.94-10.22-10.93-20.37-21.56-29.81-31.41-3.46-3.61-7.94-5.6-12.6-5.6h0Z"/></g><g><path class="cls-4" d="M693.47,317.54c-5.5,0-11-.01-16.49-.03-5.49-.01-10.98-.03-16.47-.03h-6.19c-6.17,0-12.43-.04-18.48-.09-5.7-.04-11.39-.09-17.09-.1-4.29,0-7.34-2.15-9.78-3.87-.66-.46-1.28-.9-1.89-1.27-1.37-.84-2.17-2.2-2.19-3.71-.01-1.1,.38-2.67,2.31-3.92h0c2.98-2.28,7.14-4.88,13.02-4.88,19.38,.08,38.12,.09,53.92,.09h46.47c.44,0,.82,.04,1.08,.07h.01c.76-.1,1.53-.15,2.28-.15,4.86,0,9.19,2.11,13.23,6.44l3.17,3.4-3.83,2.63-1.35,.94c-1.16,.81-2.36,1.64-3.58,2.43-1.81,1.17-3.86,1.76-6.27,1.81-9.21,.17-19.04,.25-31.85,.25Z"/><path class="cls-1" d="M620.21,303.64s.04,0,.06,0c17.96,.07,35.93,.09,53.9,.09,14.24,0,28.49-.01,42.73-.01,1.23,0,2.46,0,3.69,0,.38,0,.76,.1,1.14,.1,.09,0,.17,0,.26-.02,.68-.1,1.33-.15,1.97-.15,4.11,0,7.4,2.05,10.31,5.17-1.56,1.07-3.18,2.22-4.85,3.31-1.25,.81-2.64,1.14-4.17,1.16-10.58,.2-21.16,.25-31.74,.25s-22.05-.05-33.08-.05c-1.49,0-2.97,0-4.45,0-.57,0-1.13,0-1.7,0-11.85,0-23.69-.18-35.54-.19-3.97,0-6.56-2.69-9.58-4.55-.7-.43,.08-.76,.39-1,3.14-2.42,6.4-4.1,10.66-4.1m0-8c-7.08,0-12.12,3.16-15.35,5.62-3.51,2.37-4,5.53-3.98,7.23,.03,2.87,1.56,5.51,4.09,7.07,.5,.31,1.07,.71,1.68,1.14,2.6,1.83,6.52,4.59,12.08,4.6,5.67,0,11.45,.05,17.04,.1,6.06,.05,12.32,.1,18.5,.1h1.71c1.48,0,2.96,0,4.44,0,5.5,0,11.01,.01,16.51,.03,5.52,.01,11.04,.03,16.57,.03,12.82,0,22.65-.08,31.89-.25,3.14-.06,5.96-.88,8.37-2.45,1.28-.83,2.48-1.67,3.65-2.47,.46-.32,.92-.64,1.37-.94l7.67-5.25-6.34-6.8c-4.77-5.12-10.21-7.72-16.16-7.72-.75,0-1.52,.04-2.29,.13-.3-.03-.67-.05-1.08-.05h-3.69c-7.12,0-14.25,0-21.37,0-7.12,0-14.24,0-21.36,0-15.79,0-34.54-.01-53.86-.09h-.1Z"/></g><g><path class="cls-4" d="M72.9,375.88c-3.97,0-7.89-.94-12.32-2.97-2.5-1.14-3.93-2.76-4.26-4.81-.33-2.06,.54-4.07,2.59-5.97,2.79-2.59,5.87-4.08,9.15-4.44l7.72-.85c8.09-.89,16.46-1.82,24.71-2.65,10.13-1.03,20.43-1.99,30.39-2.92l4.67-.44c6.47-.61,12.95-1.18,19.42-1.76l5.08-.45c.34-.03,.68-.04,1.02-.04,1.45,0,2.94,.27,4.56,.81,2.1,.71,4.19,1.47,6.42,2.27l2.83,1.02,6.39,2.29-6.73,5.91c-1.12,.98-2.14,1.88-3.16,2.78-2.66,2.37-5.69,2.86-8.56,3.16l-12.9,1.34c-9.09,.95-18.19,1.89-27.28,2.81-5.09,.51-10.18,1.01-15.26,1.5-10.38,1.01-21.11,2.04-31.62,3.25-.95,.11-1.91,.17-2.86,.17Z"/><path class="cls-1" d="M161.08,352.57c1.12,0,2.22,.24,3.27,.6,2.95,1,5.87,2.08,9.18,3.27-1.81,1.59-3.32,2.9-4.8,4.23-1.8,1.61-4.04,1.93-6.31,2.16-13.39,1.38-26.78,2.79-40.17,4.15-15.65,1.58-31.32,2.96-46.94,4.76-.82,.09-1.62,.14-2.4,.14-3.79,0-7.24-1.04-10.66-2.61-2.45-1.12-2.61-2.35-.61-4.21,1.94-1.8,4.18-3.1,6.87-3.4,10.8-1.18,21.59-2.4,32.4-3.5,11.67-1.18,23.35-2.26,35.03-3.35,8.16-.76,16.33-1.48,24.49-2.21,.22-.02,.44-.03,.66-.03m0-8c-.46,0-.92,.02-1.37,.06l-5.11,.45c-6.36,.56-12.94,1.15-19.41,1.75l-4.39,.41c-10.06,.94-20.46,1.91-30.7,2.95-8.3,.84-16.7,1.77-24.84,2.67-2.54,.28-5.08,.56-7.63,.84-4.15,.45-8,2.3-11.44,5.48-3.86,3.57-4.21,7.16-3.83,9.54,.38,2.37,1.83,5.66,6.55,7.81,4.98,2.27,9.42,3.33,13.98,3.33,1.1,0,2.21-.06,3.31-.19,10.47-1.2,21.18-2.24,31.54-3.24,5.1-.49,10.2-.99,15.3-1.5,9.19-.93,18.52-1.9,27.54-2.84,4.22-.44,8.43-.88,12.65-1.31,2.43-.25,6.96-.72,10.81-4.15,1-.89,2-1.76,3.1-2.73l1.67-1.46,10.2-8.97-12.79-4.58c-.97-.35-1.91-.69-2.83-1.02-2.23-.8-4.33-1.56-6.48-2.29-2.04-.69-3.95-1.03-5.84-1.03h0Z"/></g><g><path class="cls-4" d="M666.48,376.74c-1.4,0-2.88-.09-4.38-.27-7.78-.95-15.75-1.69-23.45-2.41-4.03-.38-8.05-.75-12.07-1.16-10.58-1.07-21.15-2.17-31.72-3.27l-9.25-.96c-.98-.1-1.96-.23-2.94-.35-1.79-.23-3.48-.45-5.14-.51-4.42-.16-8.25-1.87-11.41-5.08-.48-.49-1.03-.98-1.57-1.45-.27-.23-.52-.46-.76-.68l-3.97-3.6,4.58-2.78c4.89-2.97,10.44-4.41,16.98-4.41,2.02,0,4.15,.13,6.54,.4,7.65,.87,15.47,1.56,23.04,2.23,4.95,.44,10.08,.89,15.12,1.39,9.42,.93,18.97,1.95,28.22,2.93,4.06,.43,8.11,.86,12.17,1.29l1.72,.19c.94,.1,1.87,.21,2.81,.3,3.62,.34,6.87,1.84,9.65,4.44,.88,.82,3.21,3.01,2.72,6.07-.49,3.08-3.44,4.46-4.55,4.99-3.87,1.82-7.91,2.71-12.33,2.71Z"/><path class="cls-1" d="M581.39,353.81c2,0,4.02,.14,6.08,.38,12.71,1.45,25.48,2.36,38.22,3.62,13.46,1.33,26.91,2.81,40.36,4.22,1.52,.16,3.05,.34,4.57,.49,2.83,.27,5.24,1.46,7.29,3.38,2.25,2.1,2.03,3.19-.79,4.52-3.44,1.62-6.94,2.33-10.63,2.33-1.27,0-2.57-.08-3.89-.25-11.84-1.44-23.74-2.38-35.6-3.58-13.66-1.38-27.31-2.81-40.97-4.23-2.78-.29-5.56-.78-8.35-.88-3.48-.12-6.3-1.45-8.69-3.89-.83-.85-1.76-1.61-2.5-2.29,4.71-2.86,9.7-3.83,14.91-3.83m0-8h0c-7.29,0-13.53,1.63-19.06,4.99l-9.16,5.56,7.93,7.2c.26,.23,.53,.47,.81,.72,.48,.42,.98,.86,1.35,1.24,3.9,3.98,8.65,6.09,14.12,6.28,1.47,.05,3.08,.26,4.78,.48,.98,.13,1.99,.25,3.03,.36l9.29,.97c10.39,1.08,21.13,2.2,31.7,3.26,4.05,.41,8.15,.79,12.13,1.16,7.67,.72,15.6,1.46,23.32,2.4,1.66,.2,3.29,.3,4.86,.3,5.03,0,9.62-1.01,14.04-3.09,3.97-1.87,6.26-4.55,6.8-7.98,.54-3.42-.79-6.65-3.94-9.61-3.44-3.23-7.48-5.08-12.01-5.51-.92-.09-1.85-.19-2.77-.29-.57-.06-1.15-.13-1.72-.19-4.04-.43-8.08-.86-12.12-1.29-9.26-.99-18.84-2.01-28.28-2.94-5.07-.5-10.2-.95-15.17-1.39-7.54-.66-15.34-1.35-22.93-2.21-2.53-.29-4.82-.43-6.99-.43h0Z"/></g><g><path class="cls-4" d="M160.41,222.44c-2.31,0-4.26-.76-5.83-1.38-11.56-4.53-23.18-9.39-34.42-14.09-6.59-2.76-13.4-5.61-20.11-8.35l-3.76-1.54c-8.42-3.44-17.14-7-25.64-10.74-3.92-1.73-5.74-4.86-7.2-7.37-.41-.7-.79-1.37-1.19-1.95-.86-1.26-1.06-2.76-.55-4.11,.54-1.43,1.69-2.37,3.41-2.79,1.57-.53,3.17-1.01,4.58-1.44,1.1-.33,2.21-.5,3.32-.5,1.47,0,2.95,.3,4.41,.89,28.23,11.42,56.77,23.4,84.37,34.99l.53,.22c3.41,1.43,5.82,3.62,8.41,6.14,2.55,2.48,1.67,5.44,1.33,6.55-.04,.13-.08,.25-.11,.38-.25,2.47-2.23,4.26-4.82,4.26-.11,0-.23,0-.34,0-1.32,.21-2.64,.4-3.96,.59l-1.78,.25h-.2c-.15,.02-.31,.02-.46,.02Z"/><path class="cls-1" d="M73.03,172.16c.97,0,1.93,.2,2.91,.6,28.39,11.48,56.62,23.34,84.85,35.19,2.86,1.2,5.02,3.23,7.17,5.32,1.14,1.1,.16,2.38,.04,3.58-.07,.65-.44,.74-.85,.74-.16,0-.33-.01-.49-.01-.08,0-.16,0-.24,.02-1.9,.32-3.82,.57-5.73,.84-.1,0-.19,0-.29,0-1.56,0-2.96-.55-4.37-1.1-18.29-7.16-36.3-14.99-54.47-22.42-9.8-4.01-19.61-7.97-29.3-12.24-3.63-1.6-4.75-5.06-6.7-7.92-.45-.65,.38-.7,.74-.82,1.51-.51,3.04-.97,4.57-1.44,.73-.22,1.44-.33,2.15-.33m0-8c-1.5,0-3.01,.23-4.48,.68-1.32,.4-2.95,.9-4.55,1.43-3.9,1.04-5.44,3.7-6.01,5.2-.99,2.59-.63,5.43,.98,7.79,.32,.47,.67,1.07,1.04,1.71,1.57,2.7,3.93,6.77,9.05,9.02,8.54,3.76,17.27,7.32,25.71,10.77l3.78,1.55c6.7,2.74,13.51,5.59,20.09,8.35,11.25,4.71,22.89,9.58,34.49,14.12,1.78,.7,4.22,1.65,7.29,1.65,.21,0,.42,0,.64-.01l.4-.02,.39-.06c.52-.07,1.03-.15,1.55-.22,1.2-.17,2.44-.34,3.69-.54,.02,0,.05,0,.07,0,4.47,0,8.08-3.11,8.75-7.46v-.03c1.59-5.29-.41-8.66-2.37-10.57-2.22-2.16-5.27-5.12-9.65-6.96l-.43-.18c-27.64-11.6-56.23-23.6-84.52-35.05-1.94-.78-3.93-1.18-5.91-1.18h0Z"/></g><g><path class="cls-4" d="M579.04,223.22c-1.83,0-3.53-.26-5.18-.52-.66-.1-1.33-.21-1.99-.29-.91-.11-3.12-.69-4.12-3.67-.55-1.64-.98-5.33,1.31-7.53,2.41-2.32,5.15-4.68,8.81-6.21,26.93-11.32,55.6-23.33,83.97-34.84,1.73-.7,3.35-1.04,4.96-1.04,1.22,0,2.45,.2,3.64,.61,1.14,.39,2.28,.76,3.45,1.14l5.83,1.92-1.98,4.63c-3.1,7.1-9.06,10.21-13.28,11.92-11.28,4.59-22.71,9.35-33.78,13.95-15.05,6.26-30.61,12.72-46.01,18.89-1.74,.7-3.58,1.04-5.64,1.04Z"/><path class="cls-1" d="M666.81,173.11c.78,0,1.56,.12,2.36,.4,1.7,.57,3.4,1.13,5.18,1.71-.15,.35-.2,.47-.25,.59-2.19,5.01-6.11,7.78-11.13,9.83-26.63,10.85-53.07,22.14-79.77,32.83-1.39,.56-2.77,.75-4.15,.75-2.24,0-4.46-.51-6.69-.78-1.06-.13-1.44-3.46-.51-4.35,2.26-2.17,4.59-4.15,7.58-5.41,27.92-11.73,55.86-23.43,83.93-34.82,1.17-.48,2.31-.75,3.46-.75m0-8h0c-2.14,0-4.25,.44-6.47,1.34-28.42,11.53-57.09,23.55-84.02,34.86-4.27,1.8-7.47,4.55-10.03,7.02-3.26,3.14-3.52,8.13-2.33,11.68,1.19,3.57,3.97,5.95,7.43,6.37,.58,.07,1.2,.17,1.86,.27,1.71,.27,3.65,.57,5.79,.57,2.57,0,4.9-.43,7.12-1.32,15.42-6.17,30.98-12.64,46.04-18.9,11.06-4.6,22.5-9.35,33.77-13.95,4.86-1.98,11.75-5.59,15.44-14.04l.15-.35,.13-.31,3.41-8-8.26-2.73-1.63-.54c-1.18-.39-2.34-.77-3.49-1.16-1.6-.54-3.26-.82-4.92-.82h0Z"/></g><polygon points="418.77 50.46 422.26 51.02 421.58 62.76 416.8 62.08 418.77 50.46"/><g><path class="cls-4" d="M689.27,444.69c-1.31,0-2.51-.45-3.57-.84-28.92-10.75-57.67-21.93-81.98-31.45-2.51-.98-4.4-2.14-5.92-3.64-.06-.05-.17-.12-.27-.2-3.49-2.5-3.31-5.39-2.55-7.37,.84-2.19,2.42-6.27,7.42-7.02,.54-.08,1.08-.12,1.63-.12,2.3,0,4.31,.7,6.02,1.37,20.99,8.11,41.98,16.23,62.96,24.37,2.58,1,5.16,2.03,7.73,3.06,3.78,1.51,7.7,3.08,11.55,4.51,3.85,1.44,5.83,4.32,7.41,6.64,.41,.6,.8,1.16,1.19,1.67,1,1.28,1.27,2.91,.73,4.35-.54,1.46-1.85,2.53-3.48,2.86-.74,.15-1.53,.37-2.37,.61-1.75,.5-3.74,1.06-6.09,1.18-.14,0-.28,.02-.42,.02Z"/><path class="cls-1" d="M604.03,398.05c1.6,0,3.1,.52,4.58,1.1,20.99,8.11,41.98,16.23,62.96,24.37,6.46,2.5,12.85,5.17,19.33,7.59,3.47,1.29,4.83,4.42,6.84,7.02,.36,.47,.08,.75-.38,.84-2.54,.51-4.96,1.58-7.94,1.72-.05,0-.1,0-.16,0-.6,0-1.41-.3-2.21-.6-27.4-10.19-54.66-20.75-81.88-31.41-1.71-.67-3.28-1.5-4.58-2.77-.91-.89-2.63-1.36-1.89-3.28,.81-2.11,1.66-4.11,4.28-4.5,.35-.05,.7-.08,1.04-.08m0-8c-.74,0-1.49,.06-2.22,.16-7.31,1.09-9.67,7.23-10.56,9.54-.65,1.7-2.3,7.58,3.95,12.06l.04,.03c1.88,1.78,4.12,3.15,7.03,4.28,24.32,9.52,53.08,20.7,82,31.46,1.27,.47,2.97,1.1,5,1.1,.22,0,.45,0,.67-.02,2.79-.15,5.08-.8,6.94-1.32,.79-.22,1.48-.42,2.07-.54,3.01-.61,5.41-2.62,6.44-5.39,1.02-2.75,.53-5.81-1.32-8.2-.32-.41-.68-.93-1.05-1.48-1.7-2.49-4.28-6.25-9.32-8.13-3.81-1.42-7.7-2.98-11.46-4.48-2.54-1.01-5.16-2.06-7.77-3.08-20.75-8.05-41.62-16.12-62.97-24.37-1.48-.57-4.23-1.63-7.46-1.63h0Z"/></g><g><path class="cls-4" d="M49.71,443.66c-.98,0-1.96-.12-2.91-.36-1.42-.35-2.84-.74-4.28-1.12l-6.56-1.74,2.17-4.39c2.58-5.21,6.49-8.67,12.31-10.89,19.13-7.29,38.53-14.85,57.3-22.16,7.22-2.81,14.44-5.63,21.66-8.43,1.16-.45,2.29-.81,3.37-1.06,1.05-.25,2.06-.38,3.01-.38,4.58,0,7.9,2.83,9.11,7.76,.62,2.5,.03,4.48-1.73,5.89-.32,.26-.64,.52-.95,.78-1.54,1.28-3.29,2.74-5.65,3.66-31.84,12.48-57.93,22.5-82.11,31.54-1.63,.61-3.18,.9-4.74,.9Z"/><path class="cls-1" d="M135.79,397.12c2.71,0,4.46,1.59,5.23,4.72,.16,.65,.32,1.27-.35,1.81-1.76,1.41-3.38,2.99-5.56,3.84-27.28,10.69-54.61,21.26-82.05,31.51-1.11,.42-2.22,.65-3.34,.65-.64,0-1.29-.08-1.94-.24-2-.5-3.99-1.05-6.05-1.6,2.23-4.51,5.54-7.17,10.15-8.93,26.38-10.06,52.66-20.38,78.98-30.6,.93-.36,1.88-.67,2.85-.9,.75-.18,1.44-.27,2.08-.27m0-8h0c-1.26,0-2.58,.16-3.93,.48-1.26,.3-2.57,.71-3.89,1.23-7.22,2.81-14.44,5.62-21.66,8.43-18.76,7.31-38.16,14.87-57.28,22.16-6.72,2.56-11.46,6.77-14.47,12.85l-4.34,8.77,9.46,2.51c.62,.16,1.23,.33,1.84,.49,1.41,.38,2.86,.77,4.32,1.13,1.27,.32,2.58,.48,3.88,.48,2.02,0,4.09-.39,6.14-1.16,24.18-9.04,50.29-19.06,82.17-31.56,2.96-1.16,5.06-2.91,6.75-4.31,.3-.25,.59-.49,.89-.74,1.4-1.12,4.5-4.33,3.12-9.94-1.65-6.69-6.63-10.83-13-10.83h0Z"/></g><g><path class="cls-4" d="M535.3,200.24c-4.64,0-7.57-3.48-9.37-6.11-1.5-2.18-2.79-4.07-2.03-6.51,.76-2.43,2.84-3.21,5.25-4.12,1.32-.5,2.57-1.14,3.81-1.96,6.42-4.26,12.82-8.55,19.23-12.83,12.56-8.41,25.55-17.1,38.46-25.47,1.62-1.05,3.7-2.13,6.78-2.13,.31,0,.62,.01,.95,.03l1.08,.11c.93,.1,2.11,.23,3.29,.31,1.75,.13,3.06,.82,3.89,2.05,.84,1.24,1,2.72,.47,4.39-1.19,3.75-3.22,8.5-8.39,12.01-10.67,7.24-21.59,14.5-32.14,21.52-7.95,5.29-16.18,10.76-24.23,16.18-2.52,1.7-4.82,2.52-7.04,2.52Z"/><path class="cls-1" d="M597.42,145.11c.22,0,.44,0,.68,.02,1.03,.1,2.69,.3,4.35,.42,.89,.06,1.13,.32,.84,1.24-1.27,4.01-3.08,7.37-6.83,9.91-18.7,12.69-37.61,25.08-56.36,37.69-1.82,1.22-3.38,1.84-4.81,1.84-2.19,0-4.06-1.44-6.07-4.37q-2.24-3.27,1.33-4.63c1.63-.61,3.15-1.41,4.61-2.37,19.22-12.76,38.29-25.74,57.65-38.28,1.3-.84,2.61-1.48,4.6-1.48m0-8h0c-4.15,0-6.96,1.48-8.95,2.77-12.94,8.38-25.94,17.08-38.51,25.5-6.29,4.21-12.8,8.57-19.22,12.83-.99,.65-1.97,1.16-3.01,1.55-2.66,1-6.31,2.38-7.65,6.67-1.35,4.29,.9,7.58,2.55,9.97,1.33,1.94,5.38,7.84,12.67,7.84,3.04,0,6.07-1.05,9.27-3.2,8.06-5.42,16.29-10.9,24.25-16.19,10.55-7.02,21.46-14.27,32.13-21.52,6.26-4.25,8.68-10.09,9.96-14.11,1.2-3.8-.09-6.54-.97-7.84-.88-1.3-2.94-3.51-6.91-3.8-1.09-.08-2.23-.2-3.15-.3-.37-.04-.7-.07-.99-.1h-.13s-.13-.02-.13-.02c-.41-.03-.82-.04-1.22-.04h0Z"/></g><g><path class="cls-4" d="M204.29,199.31c-1.94,0-3.94-.65-5.93-1.93-4.84-3.11-9.96-6.5-16.09-10.67-5.98-4.07-12.12-8.14-18.05-12.07-8.12-5.38-16.51-10.94-24.66-16.61-3.85-2.67-5.22-6.4-6.33-9.4-.2-.53-.4-1.07-.61-1.6-.79-1.97-.17-3.47,.28-4.19,.79-1.3,2.12-2.04,3.93-2.2,1.15-.1,2.31-.22,3.46-.33l1.49-.15c.31-.03,.63-.05,.95-.05,2.72,0,4.81,1.16,6.33,2.17,6.84,4.54,13.68,9.08,20.53,13.62,11.99,7.96,23.99,15.91,35.96,23.9,2.46,1.64,4.62,2.72,6.81,3.4,1.82,.57,3.01,1.61,3.55,3.09s.29,3.05-.74,4.67l-.47,.74c-.73,1.17-1.56,2.49-2.67,3.71-2.33,2.58-4.93,3.88-7.73,3.88Z"/><path class="cls-1" d="M142.71,144.12c1.53,0,2.83,.64,4.12,1.5,18.83,12.51,37.68,24.98,56.49,37.52,2.47,1.64,5.02,3.02,7.83,3.9,1.16,.36,1.27,.8,.64,1.78-.86,1.35-1.66,2.74-2.74,3.93-1.53,1.7-3.08,2.57-4.76,2.57-1.18,0-2.42-.43-3.77-1.3-5.38-3.46-10.71-7.01-16-10.61-14.17-9.64-28.61-18.87-42.68-28.66-3.38-2.35-4.17-5.85-5.51-9.2-.31-.78,.27-.86,.85-.92,1.66-.15,3.31-.32,4.97-.48,.19-.02,.38-.03,.56-.03m0-8c-.45,0-.91,.02-1.36,.07l-1.38,.14c-1.17,.12-2.34,.23-3.51,.34-3.91,.35-5.95,2.42-6.98,4.09-1.42,2.31-1.63,5.14-.58,7.77,.2,.5,.38,1,.57,1.5,1.23,3.33,2.92,7.9,7.8,11.29,8.19,5.69,16.6,11.27,24.73,16.66,5.93,3.93,12.06,7.99,18.02,12.05,6.17,4.2,11.31,7.61,16.17,10.73,2.65,1.7,5.37,2.56,8.09,2.56,3.98,0,7.57-1.75,10.69-5.2,1.35-1.49,2.31-3.04,3.09-4.28,.15-.24,.3-.47,.45-.71,2.17-3.38,1.81-6.32,1.13-8.19-.68-1.87-2.29-4.35-6.12-5.54-1.81-.57-3.65-1.49-5.78-2.92-11.94-7.96-24.1-16.03-35.86-23.83-6.88-4.56-13.76-9.13-20.64-13.7-1.83-1.22-4.71-2.83-8.54-2.83h0Z"/></g><path class="cls-2" d="M426.16,55.29c-1.28-.27-2.57-.54-3.85-.81,0-1.67,.39-3.28,.71-4.91,.14-.7,.41-1.42-.03-2.11,.11,.19,.27,.26,.41,.08,.06-.07,.02-.23,.03-.35-.14,.1-.28,.21-.42,.31-.68,1.86-1.36,3.72-2.1,5.73-.96-2.11-.92-4.47-2.23-6.38,.44,6.76,.74,13.48-.65,20.18-.17-2.12-.34-4.23-.49-6.35-.15-2.12-.26-4.25-1.26-6.21,.19,3,.42,5.97,.58,8.95,.42,8.03,.05,15.96-3.15,23.49-1.75,4.12-4.72,6.54-9.39,6.89-5.02,.37-9.95,.2-14.8-1.25-1.27-.38-2.49-.86-3.91-2.08,5.65,1.05,10.84,2.35,16.17,.9-4.16-.45-8.36-.52-12.44-1.64-3.99-1.09-4.79-1.91-4.62-6.09,.32-8.05,1.49-16.04,1.75-24.1,.22-6.92,.69-13.84,.52-20.79-1.18,3.06-1.47,6.3-1.88,9.49-1.45,11.16-2.06,22.4-2.9,33.62-.55,7.42-4.14,10.91-12.46,11.82-1.84,.2-3.73,.03-5.62,.31,1.7,.23,3.4,.46,5.68,.76-2.64,.85-4.73,.18-6.79,.02-.78-.06-1.54-.39-2.29-.63-3.99-1.27-5.27-2.92-5.23-7.15,.08-8.33,.52-16.66,.37-25-.09-4.79-.3-9.6,.78-14.34,.05-.24-.03-.51-.05-.78-.63,.19-.71,.79-1.24,1.69v-10.94c-.9,2.11-1,3.99-1.23,5.87-.58,4.71-.75,9.42-.72,14.16,.07,8.61,0,17.22,.04,25.83,0,1.75-.22,3.46-.54,5.16-.87,4.61-2.92,6.5-8.13,6.92-3.92,.31-7.62-.72-10.88-3.11-3.44-2.52-3.34-6.17-3.13-9.77,.39-6.8,.26-13.6,.26-20.4,0-6.66-.33-13.32,.77-19.93,.05-.29,0-.6-.15-.91-1.77,5.03-2.75,10.18-2.7,15.53,.09,10.6-.49,21.18-.75,31.78-.08,3.03-1.17,4.05-4.2,4.01-1.79-.03-3.62-.04-5.36-.41-3.98-.85-6.47-3.52-7.21-7.41-1.16-6.13-1.89-12.29-1.01-18.62,.63-4.53,.5-9.18,.55-13.78,.07-6.36,.69-12.67,2.9-18.63,2.95-7.96,9.1-11.68,17.29-11.49,1.21,.03,1.92,.63,2.41,1.73,.25,.57-.03,1.41,.8,1.74,.8-2.23,1.42-4.52,2.41-6.65,3-6.46,7.36-9.27,14.87-8.35,2.63,.32,5.23,.97,7.85,1.38,.9,.14,1.38,.37,1.03,1.35-.52,1.43-.16,2.9-.35,4.74,1.03-1.38,1.23-2.7,1.64-3.89,4.36-12.65,18.24-14.43,27.09-8.81,2.76,1.76,3.44,2.77,4.36,6.43,1.51-3.63,4.35-5.04,7.85-5.33,3.38-.28,6.57,.46,9.7,1.8,7.59,3.27,10.15,9.61,10.8,17.2,.38,4.39,.33,8.77,.01,13.16-.09,.43-.34,.9,.25,1.27,.13-.44,.26-.85,.39-1.26,.48-2.87,.96-5.74,1.54-9.21,3.47,8.61,3.14,17.05,2.36,25.53ZM379.64,4.88c1.43,.86,2.57,1.67,3.82,2.26,3.86,1.83,5.48,4.95,5.77,9.09,.2,2.79,.36,5.57,.25,8.85,.99-1.81,.83-3.3,.97-4.73,.41-4.24-.48-8.23-2.64-11.89-1.87-3.18-4.88-4.54-8.17-3.58Zm-28.54,84.41c-5.34,2.67-10.65,4.5-16.46,2,4.5,3.98,14.41,2.81,16.46-2Z"/><path class="cls-2" d="M421.68,59.31c1.37,.14,2.72,.37,3.91,1.14-.65,5.42-1.37,10.82-1.91,16.25-.22,2.17-.04,4.39-.04,7.11,1.35-6.09,1.51-11.92,3.95-17.73,1.9,7.08,4.79,13.39,6.37,20.12,.74,3.17,1.22,6.37,.96,9.67-.49,6.45-4.13,10.59-9.56,13.49-5.58,2.98-11.62,4.89-17.32,7.58-4.19,1.97-8.18,4.41-12.65,5.78-3.76,1.15-7.36,1.09-10.93-1-3.03-1.77-6.26-3.22-9.48-4.63-1.62-.71-2.19-1.64-1.83-3.36,.51-2.49,.37-5.04,.46-7.57,.09-2.38-.91-3.95-3.12-4.77-2.79-1.05-5.56-2.17-8.38-3.13-2.8-.95-4.3-.15-5.51,2.62-.73,1.68-.78,3.49-1.16,5.24-.12,.57-.19,1.13-.6,1.59-2.79-3.75-2.58-7.95,.32-10.34,1.52-1.25,3.07-.99,4.7-.68,7.47,1.41,14.7,.99,21.49-2.76,.9-.5,1.52-.28,2.36,.02,7.98,2.86,16.12,3.95,24.47,1.84,2.35-.59,4.51-1.56,6.17-3.44,1.38-1.56,3.2-.96,4.88-.85,.62,.04,1.19,.64,1.85,.13-.14,.07-.27,.15-.4,.22,.04,.04,.08,.08,.12,.12,.09-.12,.17-.24,.26-.36-1.13-1.18-1.88-2.74-3.49-3.41-.65-.27-.46-.72-.3-1.15,3.53-8.92,3.47-18.4,4.4-27.73Zm-31.45,63.21c4.59-3.51,5.57-13.24,1.84-17.58,2.52,6.3,1.19,11.79-1.84,17.58Z"/><path class="cls-2" d="M371.49,108.13c.13,1.94-.31,3.84-.45,5.76-.06,.85-.26,1.14-1.23,.88-4.17-1.13-8.2-2.59-12.02-4.62-1.17-.62-1.57-1.43-1.36-2.75,.34-2.18,.94-4.26,1.83-6.27,.58-1.32,1.53-1.77,2.86-1.46,3.24,.76,6.26,2.14,9.29,3.46,.78,.34,1.07,1.13,1.08,1.99,0,1,0,2,0,3Z"/><path class="cls-4" d="M422.26,38.97c-.13,.41-.25,.82-.39,1.26-.59-.37-.34-.84-.25-1.27,.21,0,.43,0,.64,.01Z"/><path class="cls-2" d="M366.18,227.04c12.14,.48,24.59,2.43,36.61,6.83,4.19,1.53,7.11,4.22,9.17,8.12,4.34,8.23,7.48,16.92,10.38,25.72,6.06,18.39,10.54,37.16,13.1,56.37,.23,1.7,1.22,3.82,.28,5.03-.89,1.15-3.1,.18-4.72,.23-11.54,.34-22.29,3.62-32.61,8.58-10.2,4.91-19.6,11.09-28.5,18.05-1.37,1.07-2.18,1.22-3.67,.09-14.11-10.79-29.41-19.28-46.75-23.72-7.27-1.86-14.65-2.87-22.17-2.69-2.59,.06-2.61,.08-2.29-2.57,1.8-15.05,4.74-29.87,8.99-44.42,3.74-12.8,8.02-25.38,13.56-37.54,3.15-6.91,8.02-11.06,15.31-13.05,10.74-2.92,21.59-4.75,33.31-5.04Z"/><path class="cls-2" d="M297.59,338.91c10.09,.86,20.46,3.96,30.53,8.12,10.44,4.31,20.24,9.79,29.71,15.93,1.58,1.02,1.44,1.5,.07,2.58-5.71,4.5-11.33,9.09-16.98,13.66-.7,.56-1.44,.87-2.35,.95-8.43,.8-16.78,2.1-24.99,4.22-1.07,.27-1.96,.12-2.89-.29-6.55-2.84-10.44-8.08-12.91-14.52-2.66-6.93-3.54-14.18-3.69-21.55-.04-2.2,0-4.39,0-6.59q0-2.67,3.51-2.52Z"/><path class="cls-2" d="M436.82,346.94c-.05,8.44-.79,16.79-4.28,24.63-2.74,6.17-6.96,10.84-13.52,13.1-1.06,.36-2.03,.4-3.11,.09-5.39-1.52-10.87-2.64-16.42-3.43-1.08-.15-2.02-.51-2.9-1.21-6.4-5.14-12.83-10.24-19.25-15.35-.69-.55-1.53-.91-.19-1.81,13.34-8.95,27.16-16.91,42.72-21.4,4.95-1.43,9.98-2.34,15.13-2.68,1.3-.09,1.95,.12,1.85,1.65-.13,2.13-.03,4.27-.03,6.4Z"/><path class="cls-2" d="M389.81,463c-13.79-.2-27.38-.41-41.47-.62,1.63-2.2,2.82-4.29,4.48-5.91,1.29-1.26,1.68-2.61,1.81-4.22,.15-1.79,.28-3.59,.46-5.38,.05-.45,.21-1.02,.82-.91,.5,.09,.32,.63,.4,.99,.41,1.86-.09,3.72-.03,5.58,.05,1.69,.59,2.7,2.42,3.05,7.5,1.41,14.94,.9,22.39-.44-5.25-.94-10.57-.15-15.86-.75,4.76-1.5,9.79-1.03,14.63-2.15-5-.66-10.05-.47-15.09-.85,2.41-.89,4.94-.9,7.42-1.11,3.05-.25,6.12-.32,9.18-.54,.96-.07,1.94-.1,1.79-1.69-.15-1.6-1.08-1.4-2.07-1.33-8.96,.62-17.85-.09-26.66-1.72-4.32-.8-5.7-2.52-5.98-6.89-.09-1.43,.36-2.36,1.96-2.33,1.24,.02,2.24-.49,3.27-1.17,8.95-5.92,21.15-6.96,30.67,.38,.21,.16,.43,.32,.65,.47,4.07,2.74,4.6,4.61,2.57,9.15-.19,.42-.41,1.08-.72,1.15-2.1,.48-1.77,1.9-1.6,3.45,.11,1.1-.14,2.26-.34,3.37-.24,1.37-.51,2.68,1.3,3.2,.21,.06,.37,.37,.51,.59,.2,.34,.37,.71,.54,1.07,.83,1.8,1.65,3.6,2.54,5.55Zm-15.94-23.92c2.85,0,5.72,.12,8.55-.41,.71-.13,1.62-.14,1.86-.91,.25-.84-.59-1.29-1.18-1.66-4.19-2.7-8.64-4.69-13.73-4.81-4.42-.11-8.59,.79-12.34,3.21-.48,.31-1.19,.62-1.11,1.28,.07,.61,.85,.56,1.32,.71,5.4,1.8,10.91,2.89,16.64,2.6Zm-21.7,4c0-1.85-.02-3.35,0-4.86,.01-.78-.48-1.01-1.1-1.13-.47-.09-.86-.12-1.11,.47-.68,1.67,.2,4.3,2.2,5.52Zm1.73-2.49s-.03,0-.05,0c.05,.72,.06,1.45,.18,2.16,.08,.49,.13,1.1,.88,1.09,.8-.01,.72-.62,.75-1.13,.07-1.12,.11-2.23,.17-3.35,.05-.9-.69-.82-1.21-.97-.72-.2-.71,.35-.72,.81-.01,.46,0,.92,0,1.38Zm3.4,.58c.49,1.08-.51,2.99,1.15,2.99,1.33,0,.56-1.84,.9-2.81,.11-.3,.01-.66,.06-.98,.1-.65-.18-.95-.81-1.08-2.29-.49-.7,1.39-1.31,1.89Zm6.11,.98c-.19-.72,.38-1.56-.37-2.06-.34-.22-1.06-.33-1.31-.12-.57,.45-.3,1.24-.26,1.86,.07,1.04-.42,2.75,.93,2.82,1.45,.08,.54-1.69,1.01-2.5Zm18.54,.09c-.22-.62,.9-2.5-1.26-1.58-1.6,.68-.46,2.14-.5,3.25-.02,.57,.12,1.33,.96,1.16,1.28-.27,.52-1.41,.76-2.13,.06-.18,.03-.39,.04-.7Zm-14.37,.5c-.25-.72,.59-1.52-.34-2.04-1.07-.6-1.75,.03-1.59,1.7,.09,.94-.43,2.55,.99,2.6,1.59,.06,.36-1.61,.93-2.26Zm5.05,.13c.2,.89-.26,2.53,1,2.38,1.48-.18,.71-1.95,.97-3,.21-.86-.19-1.18-1.07-1.14-1.39,.07-.78,1.08-.91,1.76Zm5.37-.07c-.33-.62,.77-1.74-.8-1.79-1.04-.03-1.24,.57-1.14,1.38,.13,1.04-.41,2.75,.94,2.85,1.63,.12,.48-1.68,1.01-2.44Zm-6.94,.07c-.23-.5,.8-1.97-1.06-1.82-1.6,.13-.64,1.39-.81,2.15-.06,.24,.03,.53,.09,.78,.16,.61,.13,1.45,1.07,1.36,.85-.08,.61-.87,.7-1.41,.04-.26,0-.53,0-1.05Z"/><path class="cls-2" d="M380.72,378.94c-8.46-.2-16.82-.27-25.78,.04,1.74-1.29,3.06-2.29,4.4-3.27,2.42-1.76,4.86-3.5,7.27-5.27,.56-.41,1.01-.74,1.74-.22,4.11,2.93,8.25,5.81,12.37,8.71Z"/><path class="cls-2" d="M440.04,344.97c0-1.86-.03-3.13,.01-4.39,.02-.55-.34-1.28,.36-1.61,.58-.27,1.18,.04,1.68,.38,.63,.43,.79,1.07,.55,1.76-.45,1.33-1.22,2.44-2.61,3.85Z"/><path class="cls-2" d="M290.99,343.03c-.83-1.37-1.32-2.47,0-4.1v4.1Z"/><path class="cls-3" d="M379.64,4.88c3.29-.96,6.3,.4,8.17,3.58,2.16,3.66,3.05,7.65,2.64,11.89-.14,1.42,.02,2.92-.97,4.73,.1-3.28-.06-6.07-.25-8.85-.29-4.14-1.9-7.26-5.77-9.09-1.25-.59-2.39-1.4-3.82-2.26Z"/><path class="cls-3" d="M351.1,89.29c-2.05,4.81-11.96,5.98-16.46,2,5.81,2.5,11.12,.67,16.46-2Z"/><path class="cls-3" d="M423.01,47.51c.14-.1,.28-.21,.42-.31,0,.12,.03,.28-.03,.35-.15,.17-.3,.1-.41-.08,0,0,.03,.05,.03,.05Z"/><path class="cls-3" d="M390.23,122.52c3.03-5.8,4.36-11.29,1.84-17.58,3.73,4.34,2.75,14.07-1.84,17.58Z"/><path class="cls-3" d="M421.07,91.6c-.09,.12-.17,.24-.26,.36-.04-.04-.08-.08-.12-.12,.13-.08,.26-.15,.4-.22,0,0-.02-.01-.02-.01Z"/><path class="cls-4" d="M373.87,439.09c-5.73,.29-11.25-.8-16.64-2.6-.47-.16-1.24-.1-1.32-.71-.08-.66,.63-.97,1.11-1.28,3.76-2.42,7.93-3.32,12.34-3.21,5.09,.12,9.54,2.11,13.73,4.81,.58,.38,1.43,.82,1.18,1.66-.23,.78-1.15,.78-1.86,.91-2.83,.53-5.7,.42-8.55,.41Z"/><path class="cls-4" d="M352.17,443.09c-2.01-1.22-2.88-3.84-2.2-5.52,.24-.6,.64-.57,1.11-.47,.62,.12,1.12,.35,1.1,1.13-.02,1.51,0,3.01,0,4.86Z"/><path class="cls-4" d="M353.9,440.6c0-.46-.01-.92,0-1.38,.01-.47,0-1.02,.72-.81,.52,.15,1.26,.07,1.21,.97-.06,1.12-.1,2.23-.17,3.35-.03,.51,.04,1.11-.75,1.13-.75,.01-.8-.6-.88-1.09-.11-.71-.12-1.44-.18-2.16,.02,0,.03,0,.05,0Z"/><path class="cls-4" d="M357.3,441.18c.61-.5-.98-2.38,1.31-1.89,.63,.13,.91,.43,.81,1.08-.05,.32,.04,.69-.06,.98-.34,.97,.43,2.81-.9,2.81-1.66,0-.67-1.91-1.15-2.99Z"/><path class="cls-4" d="M363.41,442.15c-.46,.81,.45,2.59-1.01,2.5-1.36-.08-.87-1.78-.93-2.82-.04-.63-.31-1.41,.26-1.86,.26-.2,.98-.1,1.31,.12,.75,.5,.18,1.34,.37,2.06Z"/><path class="cls-4" d="M381.95,442.25c-.02,.31,.02,.52-.04,.7-.24,.72,.52,1.86-.76,2.13-.84,.18-.98-.59-.96-1.16,.04-1.11-1.1-2.57,.5-3.25,2.16-.92,1.04,.96,1.26,1.58Z"/><path class="cls-4" d="M367.58,442.75c-.57,.65,.66,2.32-.93,2.26-1.42-.06-.9-1.67-.99-2.6-.17-1.67,.51-2.3,1.59-1.7,.93,.52,.09,1.32,.34,2.04Z"/><path class="cls-4" d="M372.63,442.88c.13-.69-.49-1.69,.91-1.76,.88-.05,1.28,.28,1.07,1.14-.26,1.06,.52,2.82-.97,3-1.26,.15-.81-1.48-1-2.38Z"/><path class="cls-4" d="M378,442.81c-.53,.76,.62,2.56-1.01,2.44-1.35-.1-.81-1.81-.94-2.85-.1-.81,.1-1.41,1.14-1.38,1.57,.05,.47,1.17,.8,1.79Z"/><path class="cls-4" d="M371.05,442.88c0,.52,.03,.79,0,1.05-.08,.54,.15,1.33-.7,1.41-.95,.09-.91-.75-1.07-1.36-.07-.25-.15-.54-.09-.78,.18-.75-.78-2.02,.81-2.15,1.86-.15,.83,1.33,1.06,1.82Z"/><polygon points="310.72 54.48 310.23 66.19 307.58 68.3 308.04 55.69 310.72 54.48"/></g><text class="cls-5" transform="translate(776.75 393.04)"><tspan x="0" y="0">Purple Lantern</tspan></text></g></svg>