<svg xmlns="http://www.w3.org/2000/svg" viewBox="0 0 1800 1360.24"><defs><style>.cls-1{fill:#8a2b8b;}.cls-2{fill:#fff;}</style></defs><title>Asset 19</title><g id="Layer_2" data-name="Layer 2"><g id="Layer_2-2" data-name="Layer 2"><path class="cls-1" d="M130.76,1249.61c-4.54-3.76-11.91-7.27-11.7-10.25.41-5.92,3.5-13.64,8.11-17,22.68-16.32,46.21-31.43,69.45-47l195.6-130.8c3.23-2.16,6.41-5.93,9.75-6.08,7.44-.34,15,1.13,22.45,1.86-2.44,6.53-3,15.39-7.68,19.15-14.48,11.64-30.46,21.43-46,31.77q-110.47,73.73-221,147.29C144,1242.43,137.8,1245.55,130.76,1249.61Z"/><path class="cls-1" d="M640.39,342.89c-10.91,1.61-19,5.15-25.26,3-5.59-1.91-9.55-9.68-13.4-15.43Q521.44,210.69,441.39,90.72c-.43-.64-1.12-1.27-1.21-2-1.25-9.52-2.43-19.06-3.62-28.6C445,64.54,456,66.92,461.44,73.72,475,90.58,486,109.47,498.11,127.51Q561.54,222.27,624.94,317C629.21,323.41,632.85,330.22,640.39,342.89Z"/><path class="cls-1" d="M280.41,132.55c6.8,5.43,12.57,9.21,17.34,14C365.91,214.6,434.14,282.61,501.6,351.36c5.58,5.68,5.75,16.66,8.43,25.17-9.24-2.45-21.33-2-27.27-7.8Q379.54,267.62,278.18,164.61c-5.28-5.34-8-14-9.66-21.65C268,140.68,275.43,136.73,280.41,132.55Z"/><path class="cls-1" d="M134,594.22c42.21,8.41,81.07,16.17,119.93,23.89,57.89,11.51,115.9,22.52,173.56,35.07,7.46,1.63,13.19,11.17,19.73,17.05-7.79,2.82-16.26,9.25-23.26,7.92-93.14-17.66-186.08-36.4-279.06-54.9-3.8-.76-8.53-.64-11.12-2.89-4.65-4-11-9.56-11-14.48C122.76,601.68,130.63,597.45,134,594.22Z"/><path class="cls-1" d="M474.84,1154.9c-3.84,4.79-7.37,9.86-11.55,14.33q-84.37,90.26-168.92,180.35c-2.65,2.83-5.22,7.31-8.33,7.8-6.78,1.07-13.88.06-20.85-.1,1.09-6.22.09-14.24,3.62-18.36,16.7-19.43,34.6-37.84,52.15-56.54,42-44.75,83.9-89.65,126.46-133.89,4.46-4.63,13.05-6.86,19.85-7.14,4.61-.19,9.44,5,14.17,7.75Z"/><path class="cls-1" d="M0,756q136.38-1.21,272.78,0c7.09.06,14.12,7.37,21.18,11.31-7.62,4.15-15.15,11.7-22.89,11.89-45,1.15-90.13.56-135.21.59s-90.16.53-135.21-.5"/><path class="cls-1" d="M385.78,542.58c-8.73.46-18.58,3.79-26,.9-42.7-16.61-84.81-34.73-127.14-52.27-29.41-12.19-59.19-23.58-88-36.94-6.56-3-10-12.8-14.88-19.46,8-1.74,17.49-7.18,23.77-4.65,72.76,29.28,145.09,59.63,217.34,90.16,6.27,2.66,11.11,8.69,16.61,13.15Z"/><path class="cls-1" d="M319.33,1006c-4.25,3.17-8.74,8.27-14.52,10.53-69.34,27.09-138.73,54.11-208.6,80-6.95,2.58-17.12-2.43-25.8-3.92,5.22-6.08,9.1-15.1,15.87-17.8,69.1-27.56,138.68-54.08,208.1-81C306,989.3,315.63,988.75,319.33,1006Z"/><path class="cls-1" d="M496.82,468c-10.9,20.93-19.8,22.37-31,15-19.45-12.71-38.61-25.87-57.93-38.8-30.28-20.25-61-39.91-90.53-61.16-5.9-4.24-7.45-14.51-11-22,8.08,0,18.22-3.2,23.93.48,50.14,32.33,99.44,66,149.17,99C484.61,464,491,465.57,496.82,468Z"/><polygon class="cls-2" points="766.87 580.45 878.6 559.59 993.6 578.25 997.05 594.87 1020.37 647.98 1049.68 744.09 1063 833.84 1060.74 893.68 1049.88 928.72 1027.75 955.36 1008.69 963.11 929.51 955.56 736.15 959.46 716.48 941.22 700.29 905.36 697.21 862.12 701.72 782.2 720.16 703.51 723.03 690.6 766.87 580.45"/><path class="cls-1" d="M1054.15,757.53c-18.77-96.8-57.19-158.47-54.52-166.18a84,84,0,0,1,6.26-13.71s-31.72-30-126.45-30-126.46,30-126.46,30a83,83,0,0,1,6.26,13.71c2.68,7.71-35.75,69.38-54.52,166.18s-17.87,179.88,34.86,205.58l10.72-1.71c-63.45-16.28-54.35-123.78-37.37-206,12.84-62.16,44.43-154.69,62.3-166.69s70.25-22.19,104.21-22.19,86.76,10.92,104.64,22.91,47.82,103.81,60.65,166c17,82.24,27.29,189.74-36.16,206l10.73,1.71C1072,937.41,1072.92,854.32,1054.15,757.53Z"/><path class="cls-1" d="M1006.38,583.45a19,19,0,0,0-4,7.32c-1.39,6.28,4.94,17.58,4.94,17.58,41.17-7.67,56.46-27.35,57.86-44.09,3.08-36.85-40.47-83-185.59-83-129.08,0-184.52,38.4-187.69,75.35-2.09,24.42,24.7,46,58.21,53.54,0,0,4.39-9.09,5.79-11.88s-8.18-22.82-8.18-22.82S791,544,872.65,544c91.2,0,129.24,26.31,137.2,32.77"/><path class="cls-1" d="M808.26,954.19,880.5,896c104.89-84.52,164.22-74.36,185.91-72.29s32.52,33-2.6,60.92a129.7,129.7,0,0,1,.11-21.91s18-17.32.42-17.32-70-1-166,67.19-72,56.43-72,56.43Z"/><path class="cls-1" d="M962.79,953.68l-74-58.95c-95.92-76.37-170.37-73.33-192.06-71.26s-36.15,32-1,59.9l2.06-20.66s-16.52-17.55,1-17.55,82.79,5,176.27,70.79c83.66,58.87,66.67,46,66.67,46Z"/><path class="cls-1" d="M734.88,508.83s2.07-62,9.3-68.17,51.64-28.92,149.76-26.85,142.53,42.34,142.53,42.34l8.26,65.07"/><path class="cls-1" d="M1036.47,456.15s-5.17-26.85-3.1-41.31c-15.5-16.52-71.27-41.56-147.7-42.34-101.21-1-139.33,35.72-139.33,35.72l-2.16,32.44"/><path class="cls-1" d="M765.09,1031.58s-2.42,22.85,6.11,25.34c4.12,1.2,63.88,7.48,80.55,8.58-.8-1.2-.69-22.89-.88-24.32"/><path class="cls-1" d="M770.42,1050.07s-74,63.81-89.3,99.79c11.38-.64,83.29-9.09,137-12.64,3.2-5-3.24-69.37-4-72.93s-32.35-6-39.11-7.82S770.42,1050.07,770.42,1050.07Z"/><path class="cls-1" d="M912.29,1043.32c0,.3-.06.57-.09.85,4.34-.27,10.95-.75,19-1.66,38.07-4.32,74.31-8.9,92.17-33.8a53.73,53.73,0,0,0,4.73-8c7.71,0,9.42-7.71,7.84-11.14,5.26-2.57,9.29-8.56-1-17.13s-67.67-27-158.29-27c-72.08,0-148.65,13.36-161.16,29.6-7.91,10.28,5.28,14.56,5.28,14.56s-6.16,10.28,5,11.75c13.61,21.61,34.12,34.53,75.38,40.41"/><path class="cls-1" d="M1059,1152.72c-2.86-4.57-118.92-16.58-185.24-17.15-30.3-.26-162.92,5.79-192.67,14.29-4,1.14-17.15,38.88-22.87,57.75-4.08,13.45-.55,29,.33,37.7a9.3,9.3,0,0,0,7.32,8.15c27.6,5.87,98.7,79.22,203.72,79.22,117.78,0,199.36-106.82,213.19-109.74C1083.66,1212.2,1061.89,1157.29,1059,1152.72Z"/><path class="cls-1" d="M723.13,1097.65c-15.81,13.84-37.57,9-57.34,6.74s-49.43-6.92-49.43-48.45S635.47,768.32,649.31,696s36.91-166.11,50.75-181.49,31.67-20.91,36.28-14c0-7.75.53-23.45,1.83-36.52-10.2.75-29.91,3.33-37.45,9-9.23,6.92-51.41,101.52-77.77,250.71s-37.57,337.6-35.59,366,31.64,44.6,52.73,53.06c14.9,6,32.57,20.78,40,29"/><path class="cls-1" d="M744.18,440.66l1.58-23.78c-3.84,9.23-10.53,9.23-26.68,13.07s-40.76-.77-52.3,19.23S609.88,570.68,582.19,673s-65.37,330.68-67.67,384.52-2.31,80.74,56.14,110.73,87.45,37.76,86,62.46c8.08.88,3.69-31.1,10.4-49.58-8.35-7.5-26.58-20.78-42.54-29-23.84-12.31-66.91-23.84-70.75-59.21s6.15-205.33,40.75-369.14,84.6-256.08,95.36-259.93c9-3.21,41.29-9.18,50.41-10.87"/><path class="cls-1" d="M1019.42,1100.71c15.64,13.84,63.61,9,83.16,6.67s49.81-3.48,49.81-45S1138,776.18,1124.27,703.89s-36.49-166.11-50.18-181.49-30.64-20.93-35.2-14c-1.2-7.47-2-23.42-3.33-36.49,10.08.75,30.42,3.32,37.88,9,9.12,6.92,50.83,101.51,76.89,250.7s37.15,337.6,35.19,366.06-31.27,44.6-52.13,53.06c-14.74,6-65.35,15.4-72.72,23.58"/><path class="cls-1" d="M1070.82,1181.46c8.35-7.5,59.82-18.22,79.92-23.39,28.37-7.29,69.32-22,73.16-57.36s-6.15-205.33-40.76-369.13-84.59-256.09-95.35-259.93c-9-3.21-41.51-8.32-50.63-10-1.24-3.9-5.1-37.08-4.48-37.35,3.84,9.22,9.73,9.66,25.88,13.51s40.76-.77,52.29,19.22,56.91,121.51,84.6,223.79,65.36,330.68,67.67,384.51,2.31,80.74-56.14,110.74-128.79,30.28-124.17,54.12C1078.81,1219.55,1077.54,1199.94,1070.82,1181.46Z"/><path class="cls-1" d="M687.69,437.47c-15.36,1.47-19-16.83-19.75-43.17s3.66-136.84,8.78-165.37S714,144,774,133.8,869.17,125,897.71,125c73.9,0,139,8.78,168.3,27.07s54.88,48.3,57.8,100.25,1.47,158.06.74,169.77-9.52,24.88-18.3,28.53-17.56-3.65-17.56-3.65,27.07-7.32,27.81-31.47,1.49-130.51.73-158.06c-.73-26.34-17.56-76.1-52-94.39-38.56-20.51-112-26.34-166.84-26.34S800.67,139.83,777,144c-32.93,5.86-75.37,27.81-88.54,84.15s-9.52,158.06-9.52,167.57-5.12,30,21.22,38.79C699.4,440.4,687.69,437.47,687.69,437.47Z"/><path d="M842.06,243c-2.48.56-4.83,1.11-7.19,1.62a49.61,49.61,0,0,1-14.89.62,56.91,56.91,0,0,1-8.2-1.31,73.9,73.9,0,0,1-7.86-2.5,43.05,43.05,0,0,1-9.68-5.36,1.72,1.72,0,0,1-.27-.27c-1.27-1.52-1.3-1.51-2.82-.52a23.9,23.9,0,0,1-3.38,2,56.09,56.09,0,0,1-6,2.14A37.45,37.45,0,0,1,756,236.63c-1.91-1.1-3.91-2-5.8-3.13a21.24,21.24,0,0,1-2.83-2.22,24.36,24.36,0,0,1-6.15-7.05c-1-1.88-2.15-3.69-3.22-5.54a1.35,1.35,0,0,1-.22-.45c-.69-2.83-1.54-5.63-2-8.5-1.7-10.2-1.12-20.5-1-30.77.07-4,0-8.07.49-12.05,1.25-10.94.83-21.93,1.27-32.89.26-6.17.71-12.32,1.25-18.47.32-3.59,1-7.15,1.5-10.72.37-2.47.73-4.94,1.24-7.37.86-4.12,1.62-8.27,2.83-12.28A67.14,67.14,0,0,1,747.47,75a34.72,34.72,0,0,1,4.74-7.35,45.53,45.53,0,0,1,9-8.19,62.34,62.34,0,0,1,10.47-5.52,67.21,67.21,0,0,1,12-3.89c3.5-.74,7-1.62,10.44-2.49a24.26,24.26,0,0,0,9.69-5.31,50.31,50.31,0,0,0,4-4.47c1.85-2,3.67-4,5.69-5.81,2.4-2.12,4.94-4.06,7.52-5.94a14,14,0,0,1,3.68-1.82c3-1,6-2,9.07-2.82a26.85,26.85,0,0,1,4-.42,30,30,0,0,1,3.86-.43c4,.12,7.92.45,11.88.55a61.12,61.12,0,0,0,9.38-.22,15,15,0,0,0,7.51-2.92c1.46-1.14,3.12-2,4.58-3.15,1.07-.84,1.91-2,3-2.87a50.41,50.41,0,0,1,4.78-3.74C884.59,7,886.47,6,888.34,5a23.83,23.83,0,0,1,3.86-1.73c2.39-.76,4.83-1.38,7.26-2,6.68-1.73,13.46-1.43,20.16-.43a31.93,31.93,0,0,1,10.08,3C932,5,934.38,5.88,936.69,7s4.81,2.49,7.3,3.52c2.17.89,4.46,1.47,6.71,2.15a23.84,23.84,0,0,0,9.4.5c2.11-.22,4.2-.73,6.31-1.07a59.2,59.2,0,0,1,14.25-.67A55,55,0,0,1,989,12.7a50.56,50.56,0,0,1,7.74,2.58c1.78.75,3.34,2,5.08,2.91,3.68,1.83,6.4,4.89,9.41,7.57a23.9,23.9,0,0,1,3.2,4c1.26,1.76,2.46,3.58,3.63,5.41a17.25,17.25,0,0,1,1.45,2.67c1.13,2.65,2.22,5.33,3.27,8,.52,1.35.74,2.82,1.36,4.11A37.61,37.61,0,0,1,1027,60.4c.47,2.8.83,5.61,1.36,8.4a9.07,9.07,0,0,0,1.06,2.59,48.79,48.79,0,0,1,4.52,10.48,70.1,70.1,0,0,1,2.42,12.22c.47,6.1.91,12.22,1.12,18.33.23,7.22.1,14.44.32,21.65a122.82,122.82,0,0,0,1,13.16c.59,4.19,1.68,8.31,2.57,12.46.52,2.42,1,4.86,1.65,7.26.79,3.15,1.57,6.31,2.55,9.4,1.26,3.94,2.72,7.82,4.09,11.72.9,2.56,1.85,5.11,2.7,7.69,1.15,3.48,2.24,7,3.3,10.51a21,21,0,0,1,.36,2.42c.57,3.43,1.1,6.87,1.74,10.28a85.61,85.61,0,0,1,.89,20.53,60.92,60.92,0,0,1-1.62,11.09,23.85,23.85,0,0,1-4.58,9.75c-1.09,1.31-1.85,2.91-3,4.21a39.55,39.55,0,0,1-4.86,5c-3.23,2.61-6.6,5-10,7.41a58.1,58.1,0,0,1-5.11,2.87c-1.35.75-2.68,1.53-4,2.24-1,.51-2,.95-3.06,1.4-1.56.69-3.14,1.33-4.69,2-2.1,1-4.18,2-6.29,3-.65.29-1.4.36-2.06.63-3.94,1.61-7.86,3.26-11.79,4.88-1.31.54-2.66,1-4,1.56-2.88,1.23-5.74,2.5-8.61,3.73-1.3.56-2.63,1-3.92,1.62-1.51.68-3,1.49-4.47,2.16-1.74.76-3.53,1.4-5.27,2.14-2.65,1.11-5.26,2.3-7.92,3.37-1.71.68-3.5,1.18-5.24,1.78a45.5,45.5,0,0,1-16.58,2.72,52.89,52.89,0,0,1-12.07-1.95c-3.69-1-7.3-2.35-10.89-3.7s-7-2.77-10.41-4.29c-4.06-1.8-8-3.8-12.09-5.59-2.75-1.21-5.59-2.22-8.39-3.32-3.47-1.35-6.94-2.69-10.4-4.05-2.29-.9-4.6-1.74-6.84-2.75a88.38,88.38,0,0,1-8.06-3.95,79.48,79.48,0,0,1-7.94-5.18,39.21,39.21,0,0,1-7.48-7.42,25.46,25.46,0,0,1-5.64-13.36,59.88,59.88,0,0,1-.39-7.45,41.65,41.65,0,0,1,.85-5.6C841.94,244,842,243.47,842.06,243Zm87,61.79a19.62,19.62,0,0,0,9.12,2.88c4.65.23,9.29.43,13.81-1.09,2.23-.75,4.53-1.31,6.72-2.19,2.35-.94,4.59-2.15,6.88-3.24,3.47-1.67,7-3.34,10.41-5s7.13-3.57,10.73-5.26q4.54-2.13,9.17-4c3.27-1.37,6.59-2.6,9.86-3.95,4-1.66,8-3.33,12-5.07,2.94-1.29,5.87-2.61,8.73-4.07a54.61,54.61,0,0,0,8.94-5.37c2.63-2.08,5.34-4,7.51-6.67s4.53-5.41,5.9-8.65a53.87,53.87,0,0,0,2.86-9.17,35.09,35.09,0,0,0,.67-7,66.26,66.26,0,0,0-1.07-14.93c-.89-4.28-1.37-8.64-2.84-12.8s-2.8-8.6-4.2-12.9c-.83-2.54-1.67-5.09-2.56-7.61-1.28-3.63-2.7-7.21-3.9-10.86-1.13-3.46-2.06-7-3.06-10.47-.18-.64-.27-1.31-.45-2.22a3.73,3.73,0,0,0-.5.69c-1,3-2.17,5.91-2.93,9-1,4.11-1.84,8.29-2.59,12.46s-1.25,8.34-2,12.5c-.67,4-1.45,8-2.18,12-.06.34-.09.68-.12,1s-.05.65-.08,1a.47.47,0,0,1-.21-.4c-.07-8.82-.44-17.63,1.16-26.4.78-4.22.92-8.56,1.39-12.84.38-3.43.82-6.85,1.23-10.27.43-3.64.9-7.27,1.29-10.91q.78-7.2,1.45-14.41c.42-4.45,1-8.9,1.1-13.37.19-8.27.75-16.57-.48-24.83-.46-3.1-.86-6.2-1.27-9.3a54.38,54.38,0,0,0-3-11.52c-.45-1.24-.92-2.47-1.44-3.68-.09-.22-.45-.32-.85-.59-1,9.33-1.85,18.41-5,27.09a3.08,3.08,0,0,1-.25-1.31c.16-6.82.42-13.63.46-20.45,0-5.13-.14-10.26-.4-15.39-.18-3.76-.39-7.52-1.72-11.16-1.12-3.06-1.65-6.34-2.7-9.43a27.28,27.28,0,0,0-3.22-7.16c-2.52-3.52-5.18-7-8.88-9.44-2.21-1.45-4.11-3.33-6.64-4.33-2.07-.82-3.89-2.28-6-3.06a49.78,49.78,0,0,0-9.12-2.73c-4.49-.78-9-1.64-13.67-.82-4.46.77-8.68,1.88-12.37,4.54A14.75,14.75,0,0,0,951.41,25a50.64,50.64,0,0,0-2.74,5.09,3.48,3.48,0,0,1-.67.65,8.28,8.28,0,0,0-.08-1c-.54-2.32-.73-4.82-1.74-6.89a17.88,17.88,0,0,0-4.33-5.32,37.81,37.81,0,0,0-6.94-4.86,47.23,47.23,0,0,0-9.14-3.94,49.23,49.23,0,0,0-12.2-2.13A47.79,47.79,0,0,0,899.63,8.1a39.39,39.39,0,0,0-6.46,2,62.76,62.76,0,0,0-7.68,4.55,32,32,0,0,0-4.67,3.89A42.51,42.51,0,0,0,877.1,23a31.72,31.72,0,0,0-3,4.29,77.67,77.67,0,0,0-3.72,7.89c-1.34,3.44-2.41,7-3.61,10.49-.23.67-.5,1.32-.76,2-.11-5.64-.7-11.26,1-16.48-3.76-.63-7.41-1.23-11.06-1.86-3.85-.67-7.68-1.62-11.55-2s-7.86-.23-11.79-.28a6.57,6.57,0,0,0-2.39.26,62.75,62.75,0,0,0-7.88,3.31,34.81,34.81,0,0,0-6.3,4.6,27,27,0,0,0-3.8,4.63,42.86,42.86,0,0,0-3.7,5.93,88.83,88.83,0,0,0-3.68,9.05c-1.29,3.68-2.36,7.44-3.52,11.16-.1.34-.18.69-.27,1-.59-2.15-1.19-4.22-1.73-6.3a5.9,5.9,0,0,0-5.65-4.7,49.76,49.76,0,0,0-9.28.49,69.25,69.25,0,0,0-7.73,1.69A30.51,30.51,0,0,0,767,62.82a39.15,39.15,0,0,0-7.73,6.69,72.06,72.06,0,0,0-6.83,9.86,29.75,29.75,0,0,0-2.51,6.1,87.13,87.13,0,0,0-2.52,8.83c-1.06,4.93-2,9.89-2.77,14.88-.63,4.3-1,8.66-1.2,13-.33,7-.42,14.09-.61,21.14a4.88,4.88,0,0,0,.12.75,52.63,52.63,0,0,0,3.73-8.19,94.36,94.36,0,0,0,2.51-9.22c.55-2.38.91-4.81,1.29-7.23.41-2.65.75-5.31,1.12-8,.71,6.85,1,13.65-.39,20.4-.58,2.76-1,5.56-1.66,8.31a56.86,56.86,0,0,1-1.78,6.28c-1,2.81-2.38,5.49-3.25,8.34a94.18,94.18,0,0,0-2.65,11,95.63,95.63,0,0,0-1.27,11.57,74.19,74.19,0,0,0,.37,9.42q.54,6.82,1.34,13.64c.38,3.28,1.05,6.53,1.48,9.81.39,2.88,1.66,5.37,2.84,8a20.13,20.13,0,0,0,7.47,8.66,24.77,24.77,0,0,0,10.77,3.83,118,118,0,0,0,13.17.47c4.48,0,6.62-2.65,7.49-6.76a26.77,26.77,0,0,0,.48-4.9c.17-6.56.23-13.13.41-19.69.4-15.13.88-30.25,1.27-45.38.1-3.84-.05-7.69,0-11.54.09-6.62-.13-13.28,1.57-19.79a60.17,60.17,0,0,0,1.3-7.19,70.17,70.17,0,0,1,3.26-12.12c.44-1.37,1-2.71,1.58-4,.12-.27.52-.41.79-.62l.3.18a29.24,29.24,0,0,0-1,3.71c-.49,3.32-1,6.65-1.25,10-.58,6.4-1.11,12.81-1.52,19.23-.12,2,.3,4,.32,6.05.16,11.11.42,22.22.34,33.33-.08,12.54-.49,25.07-.76,37.6,0,1.68-.15,3.38-.06,5.06.09,1.86.35,3.72.57,5.57.44,3.56,2.69,6.08,4.94,8.54a27.38,27.38,0,0,0,9.44,6.29,35.89,35.89,0,0,0,12.26,3.26c2.35.14,4.74.69,7,.4,4-.5,8-.79,11.63-3a17.2,17.2,0,0,0,4.4-3.37,19.12,19.12,0,0,0,4.19-8.65,89.61,89.61,0,0,0,1.77-12.61c.29-5.34.07-10.72.06-16.07q0-23.51-.07-47c0-9.64-.28-19.28.72-28.89.51-4.92.87-9.86,1.43-14.77a56.18,56.18,0,0,1,1.39-7.18,29.69,29.69,0,0,1,1.72-4.1l.6.13-1.17,28.43.33,0a34.87,34.87,0,0,1,4.84-9.22,13.67,13.67,0,0,1-.47,1.91c-.88,4.64-2,9.25-2.5,13.94-.55,5.49-.67,11.05-.69,16.58,0,7.91.41,15.83.33,23.75-.15,13.53-.56,27-.85,40.58,0,1-.05,1.9-.06,2.85,0,3.92-.21,7.81.54,11.72a12.13,12.13,0,0,0,6.2,8.67,36.32,36.32,0,0,0,10.6,3.82,67.3,67.3,0,0,0,8.63,1.17c4.75.43,9.45-.26,14.13-1a2.26,2.26,0,0,0,.67-.38c-5.13,1-22.06-.35-26-3.68,2.34.43,4.5,1,6.69,1.2,6.24.56,12.46.89,18.69-.39a36.63,36.63,0,0,0,9.59-2.88,54.79,54.79,0,0,0,7.16-4.24c3.23-2.36,5.16-5.94,6.67-9.52a39.92,39.92,0,0,0,2.52-10.3c.66-5,.89-10.15,1.22-15.23.52-8,1-15.94,1.45-23.91.09-1.47.14-2.94.29-4.4.43-4.37.91-8.74,1.35-13.1.34-3.3.65-6.6,1-9.9.44-4.24.85-8.49,1.34-12.73.36-3.2.8-6.4,1.23-9.59s.86-6.23,1.35-9.33c.34-2.15.76-4.3,1.22-6.43.78-3.63,1.62-7.24,2.47-10.86a10.45,10.45,0,0,1,.66-1.55c0,3.11-.36,6.14-.49,9.19-.48,11.79-.89,23.58-1.31,35.37-.25,6.87-.41,13.73-.75,20.59-.23,4.78-.67,9.55-1.05,14.32-.43,5.38-.9,10.75-1.36,16.12-.37,4.21-.84,8.42-1.13,12.63q-.54,8-.86,16.06a8,8,0,0,0,2,5.79,14.9,14.9,0,0,0,6.91,3.82,120.65,120.65,0,0,0,11.76,2.7,63,63,0,0,0,8.62,1.24c5,.28,10,.27,15,.35.89,0,1.78-.17,2.91-.28-3.49,1.89-7.15,2.15-10.67,2.49a58.06,58.06,0,0,1-16.54-.37c-3.43-.65-6.92-1-10.36-1.62-2.41-.45-4.77-1.18-7.5-1.88a25.9,25.9,0,0,0,9.67,5.16,86.05,86.05,0,0,0,11.79,2.7,62.65,62.65,0,0,0,9,.76c7.42.17,14.85.43,22.2-1.24a23.54,23.54,0,0,0,8-3.48c3-2,4.81-5.13,7-7.89a19.26,19.26,0,0,0,2.6-5.09,115.26,115.26,0,0,0,4.15-11.74,108.64,108.64,0,0,0,2.56-13.53c.63-5,.92-10,1.19-15a212.79,212.79,0,0,0-.54-25.5c0-.8,0-1.62.05-2.43l1.7-1.63a3.05,3.05,0,0,1,.24.7c.38,4.34.79,8.68,1.11,13,.17,2.37.17,4.75.26,7.13a10.64,10.64,0,0,0,.17,1.11,25.63,25.63,0,0,0,1.12-5.23c.47-6.33,1-12.66,1.2-19,.14-3.43-.16-6.88-.29-10.32-.1-2.9-.18-5.8-.35-8.69a72.48,72.48,0,0,0-.6-7.37c-.48-3-1.25-6-1.87-9,0-.19.09-.41.14-.61l.4-.07c1.37,4.1,2.86,8.15,4.07,12.3s2.17,8.47,3.23,12.71c1.13-3.21,1.8-6.48,2.91-9.58a27.57,27.57,0,0,1,4.5-8.71,14.77,14.77,0,0,1-.6,1.81c-.86,4.28-1.74,8.57-2.47,12.88-.54,3.21-.91,6.46-1.25,9.7-.5,4.72-.91,9.45-1.32,14.17-.19,2.24-.22,4.49-.44,6.73-.42,4.32-.92,8.62-1.38,12.93-.39,3.71-.83,7.42-1.17,11.14a128.49,128.49,0,0,1-2.81,17.44c-.6,2.59-1.11,5.2-1.84,7.75-.48,1.64-1.33,3.17-1.93,4.77s-1.11,3.25-1.68,5c5.38,2,8.25,6.37,10.74,11.29a37.62,37.62,0,0,0-3.76-1.74c-3.64-1.2-7.37-.83-11.09-.46a1.82,1.82,0,0,0-1,.44c-.89.87-1.75,1.77-2.57,2.71-2.45,2.85-5.82,4.27-9.07,5.72a39.58,39.58,0,0,1-8.88,2.76,98.41,98.41,0,0,1-13,1.58,78.2,78.2,0,0,1-17.82-.71c-2.8-.51-5.63-.92-8.46-1.27a69.65,69.65,0,0,1-13.35-3.22c-1.71-.56-3.41-1.17-5.08-1.84-1.1-.44-2.14-1-3.17-1.55-.43.26-.91.58-1.41.85-1,.53-2,1.06-3,1.56a53,53,0,0,1-6.25,3.05,78.57,78.57,0,0,1-10.15,2.87,90.94,90.94,0,0,1-11.26,1.53,85,85,0,0,1-20.83-.84q-3.29-.57-6.57-1.17c-2.07-.38-4.13-.85-6,.62-.76.59-1.67,1-2.39,1.58a15.26,15.26,0,0,0-3.26,3.15,15.81,15.81,0,0,0-2.41,10.17c.08.84.37,1.65.5,2.48a28.25,28.25,0,0,0,4.27,10.4c.39-1.28.82-2.34,1-3.43.49-2.49.92-5,1.28-7.49a28.79,28.79,0,0,1,3.88-10.85,6.08,6.08,0,0,1,4.31-3.17,17.24,17.24,0,0,1,5.78.08,55.49,55.49,0,0,1,6.68,2.39c3.87,1.39,7.76,2.7,11.61,4.12,2.2.82,4.38,1.7,6.49,2.72a13.49,13.49,0,0,1,2.9,2.07c2.43,2.14,3,5.06,3.11,8.14.32,7.76-.75,15.43-1.36,23.13-.19,2.31-.23,2.31,1.72,3.33,2.58,1.34,5.19,2.64,7.76,4,3.13,1.65,6.23,3.33,9.36,5m-24.79-12.57c.44-3.35.91-6.49,1.24-9.65s.57-6.12.64-9.18a49.3,49.3,0,0,0-.43-7.49,3.85,3.85,0,0,0-1.61-2.53,54.39,54.39,0,0,0-6.38-2.85c-2.75-1.12-5.53-2.15-8.31-3.21-1.55-.6-3.07-1.3-4.66-1.78-2.41-.72-4.77-1.83-7.37-1.38-1.36.23-2.78.7-3.39,2.06a67.6,67.6,0,0,0-3.75,9.25,36.38,36.38,0,0,0-1.68,11.84,1.86,1.86,0,0,0,.79,1.27c2.46,1.42,4.91,2.9,7.48,4.07,4,1.81,8.06,3.52,12.17,5,3.35,1.24,6.81,2.17,10.23,3.2C889,285.83,890.66,286.23,892.32,286.67Z"/><path class="cls-2" d="M743,144.08a4.88,4.88,0,0,1-.12-.75c.19-7.05.28-14.1.61-21.14.2-4.35.57-8.71,1.2-13,.72-5,1.71-10,2.77-14.88a87.13,87.13,0,0,1,2.52-8.83,29.75,29.75,0,0,1,2.51-6.1,72.06,72.06,0,0,1,6.83-9.86A39.15,39.15,0,0,1,767,62.82a30.51,30.51,0,0,1,9.68-4.65,69.25,69.25,0,0,1,7.73-1.69,49.76,49.76,0,0,1,9.28-.49,5.9,5.9,0,0,1,5.65,4.7c.54,2.08,1.14,4.15,1.73,6.3.09-.36.17-.71.27-1,1.16-3.72,2.23-7.48,3.52-11.16a88.83,88.83,0,0,1,3.68-9.05,42.86,42.86,0,0,1,3.7-5.93,27,27,0,0,1,3.8-4.63,34.81,34.81,0,0,1,6.3-4.6,62.75,62.75,0,0,1,7.88-3.31,6.57,6.57,0,0,1,2.39-.26c3.93.05,7.88-.1,11.79.28s7.7,1.33,11.55,2c3.65.63,7.3,1.23,11.06,1.86-1.65,5.22-1.06,10.84-1,16.48.26-.66.53-1.31.76-2,1.2-3.5,2.27-7,3.61-10.49a77.67,77.67,0,0,1,3.72-7.89,31.72,31.72,0,0,1,3-4.29,42.51,42.51,0,0,1,3.72-4.41,32,32,0,0,1,4.67-3.89,62.76,62.76,0,0,1,7.68-4.55,39.39,39.39,0,0,1,6.46-2,47.79,47.79,0,0,1,13.94-1.48,49.23,49.23,0,0,1,12.2,2.13,47.23,47.23,0,0,1,9.14,3.94,37.81,37.81,0,0,1,6.94,4.86,17.88,17.88,0,0,1,4.33,5.32c1,2.07,1.2,4.57,1.74,6.89a8.28,8.28,0,0,1,.08,1,3.48,3.48,0,0,0,.67-.65A50.64,50.64,0,0,1,951.41,25a14.75,14.75,0,0,1,3.42-3.54c3.69-2.66,7.91-3.77,12.37-4.54,4.7-.82,9.18,0,13.67.82A49.78,49.78,0,0,1,990,20.46c2.07.78,3.89,2.24,6,3.06,2.53,1,4.43,2.88,6.64,4.33,3.7,2.45,6.36,5.92,8.88,9.44a27.28,27.28,0,0,1,3.22,7.16c1,3.09,1.58,6.37,2.7,9.43,1.33,3.64,1.54,7.4,1.72,11.16.26,5.13.42,10.26.4,15.39,0,6.82-.3,13.63-.46,20.45a3.08,3.08,0,0,0,.25,1.31c3.1-8.68,4-17.76,5-27.09.4.27.76.37.85.59.52,1.21,1,2.44,1.44,3.68a54.38,54.38,0,0,1,3,11.52c.41,3.1.81,6.2,1.27,9.3,1.23,8.26.67,16.56.48,24.83-.1,4.47-.68,8.92-1.1,13.37q-.67,7.22-1.45,14.41c-.39,3.64-.86,7.27-1.29,10.91-.41,3.42-.85,6.84-1.23,10.27-.47,4.28-.61,8.62-1.39,12.84-1.6,8.77-1.23,17.58-1.16,26.4a.47.47,0,0,0,.21.4c0-.32,0-.65.08-1s.06-.69.12-1c.73-4,1.51-8,2.18-12,.7-4.16,1.21-8.35,2-12.5s1.56-8.35,2.59-12.46c.76-3,1.93-6,2.93-9a3.73,3.73,0,0,1,.5-.69c.18.91.27,1.58.45,2.22,1,3.49,1.93,7,3.06,10.47,1.2,3.65,2.62,7.23,3.9,10.86.89,2.52,1.73,5.07,2.56,7.61,1.4,4.3,2.69,8.64,4.2,12.9s1.95,8.52,2.84,12.8a66.26,66.26,0,0,1,1.07,14.93,35.09,35.09,0,0,1-.67,7,53.87,53.87,0,0,1-2.86,9.17c-1.37,3.24-3.68,5.93-5.9,8.65s-4.88,4.59-7.51,6.67a54.61,54.61,0,0,1-8.94,5.37c-2.86,1.46-5.79,2.78-8.73,4.07-4,1.74-8,3.41-12,5.07-3.27,1.35-6.59,2.58-9.86,3.95q-4.62,1.92-9.17,4c-3.6,1.69-7.14,3.52-10.73,5.26s-6.94,3.36-10.41,5c-2.29,1.09-4.53,2.3-6.88,3.24-2.19.88-4.49,1.44-6.72,2.19-4.52,1.52-9.16,1.32-13.81,1.09a19.62,19.62,0,0,1-9.12-2.88,11.67,11.67,0,0,1-4.65-5.79,16,16,0,0,1-1.25-5.31c-.11-3,.18-5.94.32-8.92,0-.67.11-1.33.17-2l-.42-.15c-1.26,2.72-2.7,5.37-3.72,8.18s-1.62,5.74-2.37,8.49c-3.13-1.66-6.23-3.34-9.36-5-2.57-1.35-5.18-2.65-7.76-4-2-1-1.91-1-1.72-3.33.61-7.7,1.68-15.37,1.36-23.13-.14-3.08-.68-6-3.11-8.14a13.49,13.49,0,0,0-2.9-2.07c-2.11-1-4.29-1.9-6.49-2.72-3.85-1.42-7.74-2.73-11.61-4.12a55.49,55.49,0,0,0-6.68-2.39,17.24,17.24,0,0,0-5.78-.08,6.08,6.08,0,0,0-4.31,3.17,28.79,28.79,0,0,0-3.88,10.85c-.36,2.51-.79,5-1.28,7.49-.21,1.09-.64,2.15-1,3.43a28.25,28.25,0,0,1-4.27-10.4c-.13-.83-.42-1.64-.5-2.48a15.81,15.81,0,0,1,2.41-10.17,15.26,15.26,0,0,1,3.26-3.15c.72-.62,1.63-1,2.39-1.58,1.9-1.47,4-1,6-.62s4.38.79,6.57,1.17a85,85,0,0,0,20.83.84,90.94,90.94,0,0,0,11.26-1.53,78.57,78.57,0,0,0,10.15-2.87,53,53,0,0,0,6.25-3.05c1-.5,2-1,3-1.56.5-.27,1-.59,1.41-.85,1,.51,2.07,1.11,3.17,1.55,1.67.67,3.37,1.28,5.08,1.84a69.65,69.65,0,0,0,13.35,3.22c2.83.35,5.66.76,8.46,1.27a78.2,78.2,0,0,0,17.82.71,98.41,98.41,0,0,0,13-1.58,39.58,39.58,0,0,0,8.88-2.76c3.25-1.45,6.62-2.87,9.07-5.72.82-.94,1.68-1.84,2.57-2.71a1.82,1.82,0,0,1,1-.44c3.72-.37,7.45-.74,11.09.46a37.62,37.62,0,0,1,3.76,1.74c-2.49-4.92-5.36-9.29-10.74-11.29.57-1.71,1.08-3.35,1.68-5s1.45-3.13,1.93-4.77c.73-2.55,1.24-5.16,1.84-7.75a128.49,128.49,0,0,0,2.81-17.44c.34-3.72.78-7.43,1.17-11.14.46-4.31,1-8.61,1.38-12.93.22-2.24.25-4.49.44-6.73.41-4.72.82-9.45,1.32-14.17.34-3.24.71-6.49,1.25-9.7.73-4.31,1.61-8.6,2.47-12.88a14.77,14.77,0,0,0,.6-1.81,27.57,27.57,0,0,0-4.5,8.71c-1.11,3.1-1.78,6.37-2.91,9.58-1.06-4.24-2-8.52-3.23-12.71s-2.7-8.2-4.07-12.3l-.4.07c0,.2-.18.42-.14.61.62,3,1.39,6,1.87,9a72.48,72.48,0,0,1,.6,7.37c.17,2.89.25,5.79.35,8.69.13,3.44.43,6.89.29,10.32-.25,6.34-.73,12.67-1.2,19a25.63,25.63,0,0,1-1.12,5.23,10.64,10.64,0,0,1-.17-1.11c-.09-2.38-.09-4.76-.26-7.13-.32-4.35-.73-8.69-1.11-13a3.05,3.05,0,0,0-.24-.7c-.1-.65-.19-1.31-.29-2-.44-2.65-.81-5.32-1.34-8-.57-2.85-1.28-5.67-1.94-8.51a8.57,8.57,0,0,0-.3-.85l-.32.11a10.68,10.68,0,0,1,.49,1.71q.72,6.09,1.36,12.18c.24,2.3.43,4.6.64,6.91,0,.81-.1,1.63-.05,2.43a212.79,212.79,0,0,1,.54,25.5c-.27,5-.56,10-1.19,15a108.64,108.64,0,0,1-2.56,13.53,115.26,115.26,0,0,1-4.15,11.74,19.26,19.26,0,0,1-2.6,5.09c-2.17,2.76-4,5.91-7,7.89a23.54,23.54,0,0,1-8,3.48c-7.35,1.67-14.78,1.41-22.2,1.24a62.65,62.65,0,0,1-9-.76,86.05,86.05,0,0,1-11.79-2.7,25.9,25.9,0,0,1-9.67-5.16c2.73.7,5.09,1.43,7.5,1.88,3.44.64,6.93,1,10.36,1.62a58.06,58.06,0,0,0,16.54.37c3.52-.34,7.18-.6,10.67-2.49-1.13.11-2,.29-2.91.28-5-.08-10-.07-15-.35a63,63,0,0,1-8.62-1.24,120.65,120.65,0,0,1-11.76-2.7,14.9,14.9,0,0,1-6.91-3.82,8,8,0,0,1-2-5.79q.31-8,.86-16.06c.29-4.21.76-8.42,1.13-12.63.46-5.37.93-10.74,1.36-16.12.38-4.77.82-9.54,1.05-14.32.34-6.86.5-13.72.75-20.59.42-11.79.83-23.58,1.31-35.37.13-3,.51-6.08.49-9.19a10.45,10.45,0,0,0-.66,1.55c-.85,3.62-1.69,7.23-2.47,10.86-.46,2.13-.88,4.28-1.22,6.43-.49,3.1-.92,6.21-1.35,9.33s-.87,6.39-1.23,9.59c-.49,4.24-.9,8.49-1.34,12.73-.33,3.3-.64,6.6-1,9.9-.44,4.36-.92,8.73-1.35,13.1-.15,1.46-.2,2.93-.29,4.4-.48,8-.93,15.94-1.45,23.91-.33,5.08-.56,10.19-1.22,15.23a39.92,39.92,0,0,1-2.52,10.3c-1.51,3.58-3.44,7.16-6.67,9.52a54.79,54.79,0,0,1-7.16,4.24,36.63,36.63,0,0,1-9.59,2.88c-6.23,1.28-12.45,1-18.69.39-2.19-.2-4.35-.77-6.69-1.2,4,3.33,20.89,4.65,26,3.68a2.26,2.26,0,0,1-.67.38c-4.68.71-9.38,1.4-14.13,1a67.3,67.3,0,0,1-8.63-1.17,36.32,36.32,0,0,1-10.6-3.82,12.13,12.13,0,0,1-6.2-8.67c-.75-3.91-.56-7.8-.54-11.72,0-.95,0-1.9.06-2.85.29-13.53.7-27,.85-40.58.08-7.92-.35-15.84-.33-23.75,0-5.53.14-11.09.69-16.58.47-4.69,1.62-9.3,2.5-13.94a13.67,13.67,0,0,0,.47-1.91,34.87,34.87,0,0,0-4.84,9.22l-.33,0,1.17-28.43-.6-.13a29.69,29.69,0,0,0-1.72,4.1,56.18,56.18,0,0,0-1.39,7.18c-.56,4.91-.92,9.85-1.43,14.77-1,9.61-.74,19.25-.72,28.89q0,23.49.07,47c0,5.35.23,10.73-.06,16.07A89.61,89.61,0,0,1,847,223.36a19.12,19.12,0,0,1-4.19,8.65,17.2,17.2,0,0,1-4.4,3.37c-3.66,2.16-7.68,2.45-11.63,3-2.3.29-4.69-.26-7-.4a35.89,35.89,0,0,1-12.26-3.26,27.38,27.38,0,0,1-9.44-6.29c-2.25-2.46-4.5-5-4.94-8.54-.22-1.85-.48-3.71-.57-5.57-.09-1.68,0-3.38.06-5.06.27-12.53.68-25.06.76-37.6.08-11.11-.18-22.22-.34-33.33,0-2-.44-4.05-.32-6.05.41-6.42.94-12.83,1.52-19.23.3-3.34.76-6.67,1.25-10a29.24,29.24,0,0,1,1-3.71l-.3-.18c-.27.21-.67.35-.79.62-.57,1.32-1.14,2.66-1.58,4a70.17,70.17,0,0,0-3.26,12.12,60.17,60.17,0,0,1-1.3,7.19c-1.7,6.51-1.48,13.17-1.57,19.79-.06,3.85.09,7.7,0,11.54-.39,15.13-.87,30.25-1.27,45.38-.18,6.56-.24,13.13-.41,19.69a26.77,26.77,0,0,1-.48,4.9c-.87,4.11-3,6.79-7.49,6.76a118,118,0,0,1-13.17-.47,24.77,24.77,0,0,1-10.77-3.83,20.13,20.13,0,0,1-7.47-8.66c-1.18-2.59-2.45-5.08-2.84-8-.43-3.28-1.1-6.53-1.48-9.81q-.81-6.81-1.34-13.64a74.19,74.19,0,0,1-.37-9.42,95.63,95.63,0,0,1,1.27-11.57M914.47,11.87c2.42,1.41,4.66,2.67,6.86,4,2.8,1.69,5.62,3.36,8.34,5.17a16,16,0,0,1,5.57,6.16A33.11,33.11,0,0,1,938,36.34c.62,3.6.59,7.25,1.07,10.87.56,4.38.15,8.89.09,13.35a6.12,6.12,0,0,1-.59,1.73l.33.23c.2-.2.52-.36.58-.59a36,36,0,0,0,1.15-4.72c1.11-9.31,1.61-18.58-2-27.53-.48-1.17-.86-2.38-1.33-3.56a27.59,27.59,0,0,0-6.89-10.37,17,17,0,0,0-9.46-4.57A11,11,0,0,0,914.47,11.87Zm107.4,261.48a31.81,31.81,0,0,0-11.6.59,64,64,0,0,0-9.1,3.14c-2.7,1.1-5.31,2.46-7.92,3.77-1.56.78-3.06,1.69-4.59,2.54-2,1.12-4,2.24-6,3.38s-4.29,2.48-6.43,3.72l-1.76,1a6.13,6.13,0,0,0,2.11-.6c2.52-1,5.06-1.92,7.58-2.91,3.25-1.28,6.5-2.56,9.74-3.88,3.05-1.24,6.06-2.55,9.12-3.77,3.53-1.4,7.07-2.74,10.62-4.07C1016.37,275.27,1019.13,274.32,1021.87,273.35ZM843.43,222.92a1.77,1.77,0,0,0-.46.07c-2.19,1-4.37,2-6.57,3-1.41.61-2.89,1.05-4.29,1.68-4.19,1.89-8.69,2.4-13.15,3-3.6.49-7.13-.49-10.67-1a12,12,0,0,1-1.9-.6l-5.28-1.73c.36.44.54.82.84,1a21.43,21.43,0,0,0,4.2,2.38,49.39,49.39,0,0,0,9.07,2.48,37.72,37.72,0,0,0,12.44-.34,27.33,27.33,0,0,0,12.4-5.48A10.84,10.84,0,0,0,843.43,222.92Zm102.72,39.2c.05.2.11.4.16.61.82,3.66,1.9,7.29,2.4,11a35.77,35.77,0,0,1-.62,13.11c-.43,1.79-.6,3.66-1.14,5.42a52.39,52.39,0,0,1-2.08,5c-1.16,2.7-2.33,5.38-3.45,8,2.08-1,3.33-3.1,4.81-4.9,2.09-2.54,2.87-5.82,3.76-8.93a33.34,33.34,0,0,0,1.13-7.51,43.22,43.22,0,0,0-.37-7.71,78.3,78.3,0,0,0-1.61-8.32A12.71,12.71,0,0,0,946.15,262.12Z"/><path class="cls-2" d="M892.32,286.67c-1.66-.44-3.36-.84-5-1.34-3.42-1-6.88-2-10.23-3.2-4.11-1.52-8.17-3.23-12.17-5-2.57-1.17-5-2.65-7.48-4.07a1.86,1.86,0,0,1-.79-1.27,36.38,36.38,0,0,1,1.68-11.84,67.6,67.6,0,0,1,3.75-9.25c.61-1.36,2-1.83,3.39-2.06,2.6-.45,5,.66,7.37,1.38,1.59.48,3.11,1.18,4.66,1.78,2.78,1.06,5.56,2.09,8.31,3.21a54.39,54.39,0,0,1,6.38,2.85,3.85,3.85,0,0,1,1.61,2.53,49.3,49.3,0,0,1,.43,7.49c-.07,3.06-.33,6.13-.64,9.18S892.76,283.32,892.32,286.67Z"/><path d="M1006.82,148.19c-.21-2.31-.4-4.61-.64-6.91q-.64-6.09-1.36-12.18a10.68,10.68,0,0,0-.49-1.71l.32-.11a8.57,8.57,0,0,1,.3.85c.66,2.84,1.37,5.66,1.94,8.51.53,2.64.9,5.31,1.34,8,.1.65.19,1.31.29,2Z"/><path d="M914.47,11.87a11,11,0,0,1,6.44-.69,17,17,0,0,1,9.46,4.57,27.59,27.59,0,0,1,6.89,10.37c.47,1.18.85,2.39,1.33,3.56,3.65,9,3.15,18.22,2,27.53a36,36,0,0,1-1.15,4.72c-.06.23-.38.39-.58.59l-.33-.23a6.12,6.12,0,0,0,.59-1.73c.06-4.46.47-9-.09-13.35-.48-3.62-.45-7.27-1.07-10.87a33.11,33.11,0,0,0-2.76-9.14A16,16,0,0,0,929.67,21c-2.72-1.81-5.54-3.48-8.34-5.17C919.13,14.54,916.89,13.28,914.47,11.87Z"/><path d="M843.43,222.92a10.84,10.84,0,0,1-3.37,4.49,27.33,27.33,0,0,1-12.4,5.48,37.72,37.72,0,0,1-12.44.34,49.39,49.39,0,0,1-9.07-2.48,21.43,21.43,0,0,1-4.2-2.38c-.3-.18-.48-.56-.84-1l5.28,1.73a12,12,0,0,0,1.9.6c3.54.5,7.07,1.48,10.67,1,4.46-.61,9-1.12,13.15-3,1.4-.63,2.88-1.07,4.29-1.68,2.2-1,4.38-2,6.57-3A1.77,1.77,0,0,1,843.43,222.92Z"/><path d="M946.15,262.12a12.71,12.71,0,0,1,3,5.8,78.3,78.3,0,0,1,1.61,8.32,43.22,43.22,0,0,1,.37,7.71,33.34,33.34,0,0,1-1.13,7.51c-.89,3.11-1.67,6.39-3.76,8.93-1.48,1.8-2.73,3.95-4.81,4.9,1.12-2.61,2.29-5.29,3.45-8a52.39,52.39,0,0,0,2.08-5c.54-1.76.71-3.63,1.14-5.42a35.77,35.77,0,0,0,.62-13.11c-.5-3.71-1.58-7.34-2.4-11C946.26,262.52,946.2,262.32,946.15,262.12Z"/><polygon class="cls-1" points="1039.97 152.92 1019.55 147.29 1020.74 135.78 1038.21 140.27 1039.97 152.92"/><path class="cls-1" d="M1082.81,1222.94s-1,67.67-10.7,74.71S1002,1331.18,867,1332.72"/><path class="cls-1" d="M656.44,1222.94s.94,67.67,10.69,74.71,70.14,33.53,205.16,35.07"/><path class="cls-1" d="M976.23,1035.64s2.42,22.85-6.12,25.34c-4.11,1.2-63.88,7.48-80.55,8.57.81-1.19.69-22.88.88-24.31"/><path class="cls-1" d="M970.9,1054.13s73.44,63.77,88.75,99.75c-11.39-.64-82.74-9.05-136.43-12.61-3.2-5,3.23-69.36,3.94-72.92s32.36-6,39.11-7.82S970.9,1054.13,970.9,1054.13Z"/><rect class="cls-1" x="799.78" y="1015.94" width="138.05" height="133.92"/><path class="cls-2" d="M936.52,1094.83c-1-2.85-3.25-4.74-7.33-6.88s-16.65-15.33-41.81-15a69.17,69.17,0,0,0-41.47,14.61s-7.82-.71-8.84,2.14c-1.33,3.73,1,13.9,4.42,17.1s21.08,6.07,30.93,6.78,22.1,1.78,27.2,1.78,28.55-.36,32-2.14S937.54,1097.68,936.52,1094.83Zm-90.95,11.65-3.4-2.5c-3.4-2.49-1.7-13.89-1.7-13.89l5.44,1.42Zm47.24,4.79a4.25,4.25,0,0,1-3.06.36c-2-.36-1.56-11.38-1.56-11.38l5.34.58Zm-9.73-15.78c-2.87-.15-7.76-1.81-14.28-2.92-5.88-1-11.41-3.5-15.07-4.62,0,0,2.4-3.53,9.17-6.64a58.17,58.17,0,0,1,35.36-4.06c12.17,2.89,29.27,11.67,28.29,15.32C925.64,1096,909,1096.8,883.08,1095.49Zm-28.56,12.06a4.31,4.31,0,0,1-3.06.36c-2-.36-1.36-14.26-1.36-14.26l5.15,1Zm8.78,1.24a4.31,4.31,0,0,1-3.06.36c-2-.36-1.47-13.66-1.47-13.66l5.38,1.17Zm10.12,1.15a4.25,4.25,0,0,1-3.06.36c-2-.36-1.5-12.78-1.5-12.78l5.2.76Zm10.53.82a4.29,4.29,0,0,1-3.06.35c-2-.35-1.55-12-1.55-12l5.38.7Zm17.45.51a4.25,4.25,0,0,1-3.06.36c-2-.36-1.59-10.8-1.59-10.8h5.38Zm8.49,0a4.25,4.25,0,0,1-3.06.36c-2-.36-1.52-10.8-1.52-10.8l5.35-.58Zm10-.51a4.29,4.29,0,0,1-3.06.35c-2-.35-1.6-11.31-1.6-11.31l5.51-1.13Z"/><path class="cls-2" d="M892.73,1124.17c-4.43.58-8.42.57-12.82,1.29-1.33.22-3.5.56-3.49.94s1.53.84,4.55.84c5.69,0,37-.25,37.35,1.53s-40.9,2.73-40.55,5.22,40.41-1.63,41.48,1.57S882,1140,873.86,1139s-16.71-1.78-17.42-5,.39-20.13-.68-20.84c-2.16-1.44-2.88,2-3.23,8.4s-.82,15.56-2.95,15.92-7.37,8.74-13,16.41l103.21,1.5c-7.23-13.12-7.08-18.27-10.71-18.42-5.34-.2,2.12-15.82-2.25-22.52-6.21-9.53-4.59-3.67-4.51-2s1.15,6.27,1.28,8.78C923.72,1123.44,899.92,1123.23,892.73,1124.17Z"/><path class="cls-1" d="M141.53,928.56c-6.7-2.86-23.08-6.61-24.13-11.2s11.22-13.73,20.54-14.77Q251.81,889.92,367,880.21c9.52-.8,21.79,6.13,32.78,9.47-7.39,5.19-13.07,14-22.43,15C301.56,913.22,225.07,920.31,141.53,928.56Z"/><path class="cls-1" d="M1649.15,1252c4.53-3.76,11.91-7.27,11.7-10.24-.41-5.93-3.5-13.65-8.11-17-22.68-16.32-46.21-31.43-69.45-47L1387.68,1047c-3.22-2.16-6.4-5.93-9.74-6.08-7.44-.34-15,1.13-22.45,1.86,2.44,6.53,3,15.4,7.67,19.15,14.49,11.64,30.47,21.43,46,31.78q110.47,73.71,221,147.29C1635.92,1244.81,1642.11,1247.92,1649.15,1252Z"/><path class="cls-1" d="M1139.52,345.26c10.91,1.61,19,5.15,25.26,3,5.59-1.9,9.55-9.68,13.4-15.43q80.29-119.79,160.34-239.77c.43-.64,1.12-1.27,1.21-2,1.25-9.53,2.43-19.07,3.62-28.61-8.46,4.39-19.42,6.78-24.88,13.57-13.56,16.86-24.59,35.75-36.67,53.8Q1218.37,224.63,1155,319.4C1150.7,325.79,1147.06,332.59,1139.52,345.26Z"/><path class="cls-1" d="M1499.5,134.92c-6.8,5.44-12.57,9.21-17.35,14C1414,217,1345.77,285,1278.3,353.73c-5.57,5.68-5.74,16.66-8.42,25.17,9.24-2.45,21.33-2,27.27-7.8Q1400.37,270,1501.73,167c5.28-5.35,8-14,9.66-21.66C1511.87,143.05,1504.48,139.11,1499.5,134.92Z"/><path class="cls-1" d="M1645.92,596.59c-42.21,8.41-81.07,16.17-119.93,23.89C1468.1,632,1410.09,643,1352.43,655.55c-7.46,1.63-13.2,11.17-19.73,17.05,7.79,2.82,16.26,9.25,23.26,7.92,93.14-17.66,186.08-36.4,279.06-54.9,3.8-.75,8.53-.64,11.12-2.88,4.65-4,11-9.57,11-14.49C1657.15,604.05,1649.28,599.82,1645.92,596.59Z"/><path class="cls-1" d="M1305.07,1157.27c3.84,4.79,7.37,9.86,11.55,14.34Q1401,1261.85,1485.54,1352c2.65,2.83,5.22,7.31,8.33,7.8,6.78,1.07,13.88.06,20.85-.1-1.09-6.22-.09-14.24-3.63-18.36-16.69-19.43-34.59-37.84-52.14-56.54-42-44.75-83.9-89.65-126.46-133.89-4.46-4.63-13-6.85-19.85-7.14-4.61-.19-9.44,5-14.17,7.76Z"/><path class="cls-1" d="M1644.05,782.11c45.07,0,90.16.54,135.21-.49,7-.16,13.83-7.33,20.74-11.26-6.7-4.17-13.35-11.92-20.09-12q-136.38-1.23-272.78-.06c-7.09.06-14.12,7.37-21.18,11.31,7.62,4.15,15.15,11.7,22.89,11.89C1553.88,782.67,1599,782.08,1644.05,782.11Z"/><path class="cls-1" d="M1394.13,545c8.73.46,18.58,3.79,26,.9,42.7-16.61,84.81-34.73,127.14-52.27,29.41-12.19,59.19-23.57,88-36.94,6.56-3,10-12.8,14.88-19.46-8-1.74-17.49-7.17-23.78-4.65-72.75,29.28-145.09,59.63-217.33,90.17-6.27,2.65-11.11,8.68-16.61,13.14Z"/><path class="cls-1" d="M1460.58,1008.35c4.25,3.16,8.74,8.26,14.52,10.52,69.34,27.09,138.73,54.11,208.6,80,7,2.57,17.12-2.44,25.8-3.93-5.22-6.08-9.1-15.09-15.87-17.8-69.1-27.56-138.68-54.08-208.1-81C1473.87,991.67,1464.28,991.12,1460.58,1008.35Z"/><path class="cls-1" d="M1283.09,470.39c10.9,20.94,19.8,22.37,31,15,19.45-12.71,38.61-25.87,57.93-38.8,30.27-20.25,61-39.91,90.53-61.16,5.9-4.24,7.45-14.51,11-22-8.08,0-18.22-3.2-23.93.48-50.14,32.33-99.44,66-149.17,99C1295.3,466.34,1288.92,467.94,1283.09,470.39Z"/><path class="cls-1" d="M1638.38,930.93c6.69-2.86,23.08-6.61,24.13-11.2S1651.29,906,1642,905q-113.86-12.68-229.08-22.37c-9.52-.8-21.79,6.12-32.78,9.46,7.39,5.19,13.07,14,22.43,15C1478.35,915.59,1554.84,922.68,1638.38,930.93Z"/></g></g></svg>