<svg xmlns="http://www.w3.org/2000/svg" xmlns:xlink="http://www.w3.org/1999/xlink" width="1920" height="1080" viewBox="0 0 1920 1080"><defs><clipPath id="a"><rect width="2397.535" height="2697.227" transform="translate(0 0)" fill="#9d77aa" stroke="#707070" stroke-width="1"/></clipPath><clipPath id="c"><rect width="1920" height="1080"/></clipPath></defs><g id="b" clip-path="url(#c)"><rect width="1920" height="1080" fill="#fff"/><rect width="1920" height="1080" fill="#465a79"/><g transform="matrix(0.819, -0.574, 0.574, 0.819, -960.293, -531.946)" clip-path="url(#a)"><path d="M625.856,2115.542c-133.546-104.276-212.21-274.409-199.4-437.225,14.635-160.987,120.74-314.656,12.806-530.524S11.179,653.855.2,500.186c-9.147-155.5,292.7-188.428,534.183-283.556C774.037,121.5,953.318-37.656,1106.987,8.079c151.84,45.735,278.068,296.362,396.979,462.837,117.081,166.475,228.674,246.968,270.75,356.732,43.906,109.764,20.123,245.139,153.669,459.178s426.249,506.742,464.666,757.369-175.622,461.008-428.078,495.766-543.33-106.1-781.151-195.745C946,2256.4,757.573,2219.817,625.856,2115.542Z" transform="translate(0 75.931)" fill="#9d77aa"/></g></g></svg>